<svg width="38" height="50" viewBox="0 0 38 50" fill="none" xmlns="http://www.w3.org/2000/svg">
<path d="M20.4627 49.1615H14.7255C14.7255 49.1615 17.4665 43.3501 17.7853 41.5118C18.1041 39.6735 18.7414 35.8902 18.7414 35.4634C18.7414 34.9296 19.3152 30.3043 19.3152 30.3043C19.3152 30.3043 19.2306 27.2471 18.1676 25.679C17.0604 24.045 13.9606 22.6547 13.9606 22.6547C13.3485 21.9431 10.1359 21.528 8.79717 21.5874C7.45845 21.6466 5.54595 21.4094 5.54595 21.4094L9.75328 21.0537L7.07614 19.6305C7.07614 19.6305 5.19538 18.9998 4.58984 18.3852L4.78102 17.6736L5.54595 18.741C5.54595 18.741 7.18448 19.3591 8.03224 18.9189C8.63333 18.6067 9.1795 17.6736 9.1795 17.6736C9.1795 17.6736 9.65948 16.8375 9.75328 16.2504C9.81917 15.8381 9.50483 15.5299 9.75328 15.183C10.1261 14.6628 10.826 15.0185 11.4743 15.183C11.9579 15.3057 12.6219 15.7167 12.6219 15.7167L11.4743 16.2504L12.0481 16.962C12.0481 16.962 12.5337 17.3361 12.6219 17.6736C12.7563 18.1877 12.0481 18.9189 12.0481 18.9189C12.0481 18.9189 10.6105 19.4826 10.7094 20.1642C10.7735 20.605 11.4743 21.0537 11.4743 21.0537L13.0042 21.4094L15.6816 21.9431C16.7271 22.1516 16.806 21.6171 17.0204 21.0537C17.1447 20.7262 17.0204 20.1642 17.0204 20.1642C17.0204 19.0526 17.015 18.2364 17.2115 17.1399C17.4027 16.0725 17.3846 15.7508 17.7853 15.0051L18.5502 13.582C18.5502 13.582 19.265 12.1877 20.0801 11.9809C20.5123 11.8712 20.4627 11.9809 20.4627 11.9809C20.4627 11.9809 19.5064 12.6925 19.3152 13.4041C19.124 14.1157 18.5256 16.2688 18.5502 17.6736C18.5725 18.9412 18.2071 20.7927 19.6978 22.4768C20.3054 23.1637 20.9599 23.7933 21.4188 24.0779C21.8777 24.3625 23.0761 24.493 24.096 24.9674C25.1159 25.4418 27.3983 23.8294 28.3033 23.1884C29.019 22.6817 29.168 22.2983 29.642 21.5874C30.2274 20.7097 30.2158 18.9189 30.2158 18.9189L30.407 18.3852C30.3975 18.605 30.407 19.2747 30.407 20.52C30.407 21.7653 27.921 24.6116 27.921 24.6116C27.921 24.6116 26.0322 25.8591 24.6698 27.1022C23.9871 27.7251 23.1399 28.8811 23.1399 28.8811C23.1399 28.8811 21.9309 30.9919 21.4188 32.439C20.4776 35.0992 20.0778 36.421 19.6978 39.1991C19.4031 41.3532 19.5954 42.9004 19.6978 45.0699C19.7741 46.6902 20.4627 49.1615 20.4627 49.1615Z" fill="#FF7481" fill-opacity="0.1"/>
<path d="M18.8489 35.0711C29.2589 35.0711 37.6979 27.2201 37.6979 17.5355C37.6979 7.85093 29.2589 0 18.8489 0C8.43896 0 0 7.85093 0 17.5355C0 27.2201 8.43896 35.0711 18.8489 35.0711Z" fill="url(#paint0_radial)" fill-opacity="0.1"/>
<defs>
<radialGradient id="paint0_radial" cx="0" cy="0" r="1" gradientUnits="userSpaceOnUse" gradientTransform="translate(18.8489 17.5355) rotate(90) scale(17.5355 18.8489)">
<stop offset="0.296875" stop-color="white"/>
<stop offset="1" stop-color="#FF7481"/>
</radialGradient>
</defs>
</svg>
