<svg width="13" height="10" viewBox="0 0 13 10" fill="none" xmlns="http://www.w3.org/2000/svg">
<path d="M7.03067 1.43857C6.20616 1.87102 5.43546 2.3858 4.71856 2.98289C4.00167 3.57999 3.50305 4.1521 3.22271 4.6992C3.89229 4.8323 4.37744 5.11478 4.67816 5.54663C4.97845 5.95765 5.13358 6.40269 5.14355 6.88175C5.15699 7.52744 4.93914 8.07336 4.48999 8.5195C4.04042 8.9448 3.5136 9.16321 2.90954 9.17473C2.26382 9.18703 1.71749 8.96823 1.27053 8.51833C0.844397 8.06804 0.625045 7.54087 0.612471 6.93684C0.599029 6.29114 0.752224 5.64227 1.07206 4.99023C1.41272 4.33779 1.85839 3.72502 2.40908 3.15193C2.95977 2.57883 3.58467 2.06683 4.28377 1.61593C4.98243 1.1442 5.69325 0.755591 6.41621 0.450095L7.03067 1.43857ZM12.8109 1.32842C11.9864 1.76087 11.2157 2.27565 10.4988 2.87275C9.78187 3.46985 9.28325 4.04195 9.00291 4.58906C9.67249 4.72216 10.1576 5.00463 10.4584 5.43648C10.7586 5.8475 10.9138 6.29254 10.9237 6.7716C10.9372 7.4173 10.7193 7.96321 10.2702 8.40935C9.82062 8.83466 9.2938 9.05307 8.68974 9.06458C8.04403 9.07688 7.49769 8.85809 7.05073 8.40819C6.6246 7.95789 6.40525 7.43073 6.39267 6.82669C6.37923 6.181 6.53243 5.53213 6.85226 4.88008C7.19292 4.22764 7.63859 3.61488 8.18928 3.04178C8.73998 2.46869 9.36487 1.95669 10.064 1.50579C10.7626 1.03406 11.4735 0.645445 12.1964 0.339949L12.8109 1.32842Z" fill="#4F4F4F"/>
</svg>
