<svg width="142" height="40" viewBox="0 0 142 40" fill="none" xmlns="http://www.w3.org/2000/svg">
<g filter="url(#filter0_b)">
<rect width="142" height="39.3782" rx="5.22655" fill="#D5E2FB" fill-opacity="0.1"/>
</g>
<g clip-path="url(#clip0)">
<path d="M37.0498 9.06688C37.2907 9.06688 37.523 9.10842 37.7472 9.19148C37.9796 9.26625 38.1831 9.37839 38.3573 9.52791C38.5399 9.66914 38.6853 9.84774 38.7932 10.0637C38.901 10.2714 38.9551 10.5082 38.9551 10.774C38.9551 11.289 38.7891 11.8747 38.4569 12.531C38.125 13.1872 37.6932 13.9556 37.1619 14.8362C36.5891 15.7749 36.0495 16.7136 35.543 17.6523C35.0367 18.5827 34.5634 19.484 34.1235 20.3562C33.6917 21.2202 33.2933 22.0386 32.9281 22.8111C32.571 23.5752 32.2597 24.2607 31.994 24.8672C32.3261 24.9086 32.6582 24.9418 32.9902 24.9668C33.3223 24.9918 33.6213 25.0001 33.8869 24.9918L33.9117 25.6397C33.8536 25.6397 33.6337 25.6397 33.2518 25.6397C32.8781 25.6313 32.3677 25.5815 31.7201 25.4901C31.4627 26.0882 31.2635 26.5534 31.1223 26.8857C30.9895 27.218 30.9231 27.3925 30.9231 27.409L29.4413 26.9481L30.1885 25.2409C29.6322 25.1163 29.0471 24.9708 28.4327 24.8048C27.8183 24.6386 27.1916 24.4518 26.5524 24.2441C25.9214 24.028 25.2905 23.7872 24.6595 23.5214C24.0287 23.2555 23.4226 22.9647 22.8416 22.6491C22.3019 23.2722 21.7166 23.8868 21.0857 24.4932C20.4548 25.0914 19.7782 25.6313 19.0559 26.1132C18.3337 26.5867 17.5658 26.9688 16.7522 27.2596C15.9469 27.5586 15.096 27.7082 14.1995 27.7082C13.4025 27.7082 12.6055 27.5877 11.8086 27.3468C11.0199 27.1141 10.3101 26.7735 9.67918 26.325C9.05656 25.8681 8.55015 25.3157 8.15998 24.6678C7.7698 24.0114 7.57471 23.2679 7.57471 22.4373C7.57471 21.7809 7.69923 21.2037 7.94829 20.7052C8.18902 20.2068 8.52109 19.7914 8.94449 19.4591C9.37618 19.1268 9.87842 18.8776 10.4512 18.7115C11.0324 18.537 11.655 18.4498 12.3191 18.4498C12.8255 18.4498 13.3485 18.4996 13.8881 18.5993C14.436 18.699 14.9674 18.8652 15.4821 19.0978C15.9968 19.3304 16.4824 19.6377 16.939 20.0199C17.3956 20.4019 17.7858 20.8755 18.1095 21.4405L17.5616 21.7892C17.5533 21.7727 17.5035 21.7104 17.4122 21.6024C17.3292 21.486 17.2005 21.349 17.0262 21.1911C16.8601 21.0251 16.6443 20.8505 16.3786 20.6678C16.113 20.4851 15.7934 20.3188 15.4198 20.1694C15.0545 20.0116 14.627 19.8828 14.1372 19.7831C13.6557 19.6751 13.1078 19.6211 12.4934 19.6211C11.8708 19.6211 11.3271 19.7291 10.8622 19.9451C10.3973 20.1528 10.0071 20.4227 9.69163 20.755C9.38446 21.0791 9.15204 21.4445 8.99429 21.8516C8.84487 22.2587 8.77015 22.6532 8.77015 23.0354C8.77015 23.484 8.84901 23.8951 9.00674 24.2691C9.16449 24.6345 9.37618 24.9668 9.64183 25.2659C9.91577 25.5649 10.2312 25.8266 10.5882 26.0508C10.9535 26.2668 11.3354 26.4496 11.7339 26.5991C12.1406 26.7487 12.5516 26.8609 12.9666 26.9355C13.39 27.0103 13.801 27.0477 14.1995 27.0477C15.0213 27.0477 15.81 26.9148 16.5654 26.6489C17.3209 26.3748 18.0348 26.0177 18.7073 25.5773C19.3797 25.1287 20.0106 24.6221 20.6 24.0571C21.1978 23.4923 21.7498 22.9149 22.2562 22.3251C21.6917 21.9845 21.1687 21.6189 20.6872 21.2285C20.214 20.8298 19.8031 20.4062 19.4544 19.9576C19.1057 19.5007 18.8318 19.0147 18.6325 18.4996C18.4416 17.9763 18.3461 17.4239 18.3461 16.8424C18.3461 16.3605 18.4333 15.9078 18.6076 15.4841C18.7903 15.0605 19.0352 14.6908 19.3423 14.3751C19.6578 14.0512 20.0272 13.7978 20.4506 13.615C20.8823 13.424 21.343 13.3285 21.8328 13.3285C22.3807 13.3285 22.8997 13.4157 23.3893 13.5901C23.8792 13.7563 24.3441 13.9889 24.784 14.2879C25.2241 14.5787 25.635 14.9276 26.0168 15.3346C26.407 15.7417 26.7724 16.1819 27.1127 16.6555C28.0425 15.6171 28.9681 14.641 29.8897 13.7272C30.8195 12.8051 31.7119 11.9993 32.567 11.3098C33.422 10.6203 34.2273 10.0762 34.9827 9.67745C35.7465 9.27039 36.4354 9.06688 37.0498 9.06688ZM27.4988 17.2287C27.889 17.8268 28.2458 18.4457 28.5696 19.0853C28.8933 19.725 29.184 20.3522 29.4413 20.9669C29.7069 21.5815 29.9395 22.1672 30.1387 22.7239C30.3463 23.2722 30.5246 23.7581 30.6741 24.1817C31.6455 22.0634 32.6832 19.9866 33.7872 17.9514C34.8914 15.9161 36.1326 13.9058 37.5106 11.9204C37.7346 11.5881 37.8924 11.314 37.9838 11.098C38.0834 10.8737 38.1331 10.6826 38.1331 10.5248C38.1331 10.2589 38.0212 10.0596 37.797 9.92665C37.5728 9.78545 37.3154 9.71482 37.025 9.71482C36.1034 9.71482 34.8457 10.3462 33.2518 11.6089C31.6662 12.8633 29.7486 14.7365 27.4988 17.2287ZM19.4793 17.4405C19.4793 17.8808 19.5623 18.3003 19.7284 18.699C19.8944 19.0895 20.1227 19.4674 20.4133 19.833C20.7038 20.1902 21.0483 20.5308 21.4468 20.8547C21.8453 21.1704 22.277 21.4695 22.7419 21.7518C23.3645 20.996 23.9996 20.2359 24.6471 19.4716C25.2946 18.7073 25.9504 17.9514 26.6146 17.2037C26.3241 16.8216 26.0211 16.4685 25.7055 16.1446C25.3984 15.8123 25.0746 15.5257 24.7343 15.2848C24.3939 15.0439 24.0411 14.857 23.6759 14.7241C23.3105 14.5911 22.9328 14.5247 22.5426 14.5247C22.1027 14.5247 21.6959 14.5994 21.3223 14.749C20.9487 14.8985 20.6249 15.1062 20.351 15.372C20.077 15.6295 19.8612 15.9369 19.7035 16.2941C19.554 16.643 19.4793 17.0251 19.4793 17.4405ZM30.1261 24.543C30.01 24.1693 29.8523 23.7165 29.6531 23.1848C29.462 22.6532 29.2337 22.0841 28.9681 21.4778C28.7107 20.8631 28.416 20.2359 28.084 19.5962C27.7602 18.9565 27.4032 18.346 27.013 17.7645C26.4403 18.4124 25.8466 19.0936 25.2324 19.808C24.6181 20.5225 23.9787 21.2826 23.3146 22.0884C23.8959 22.4123 24.5019 22.7072 25.1327 22.973C25.7721 23.2305 26.3905 23.4632 26.9882 23.6709C27.5943 23.8703 28.167 24.0447 28.7067 24.1943C29.2546 24.3437 29.7277 24.4601 30.1261 24.543ZM39.1543 25.9886C39.1543 26.2378 39.0629 26.4538 38.8803 26.6365C38.7061 26.8109 38.4902 26.8981 38.2328 26.8981C37.9922 26.8981 37.7803 26.8109 37.5977 26.6365C37.4235 26.4538 37.3362 26.2378 37.3362 25.9886C37.3362 25.7476 37.4235 25.5399 37.5977 25.3655C37.7803 25.1828 37.9922 25.0914 38.2328 25.0914C38.4902 25.0914 38.7061 25.1828 38.8803 25.3655C39.0629 25.5399 39.1543 25.7476 39.1543 25.9886ZM54.7074 17.1539C54.3256 17.8185 53.8857 18.483 53.3875 19.1476C52.8978 19.8122 52.3456 20.4145 51.7314 20.9543C51.1254 21.486 50.4529 21.9221 49.714 22.2628C48.9752 22.595 48.1699 22.7613 47.2982 22.7613C46.5843 22.7613 45.9161 22.6532 45.2934 22.4373C44.6707 22.213 44.127 21.8847 43.6621 21.4529C43.2055 21.0208 42.8444 20.4934 42.5788 19.8703C42.3214 19.239 42.1927 18.5121 42.1927 17.6897C42.1927 16.6845 42.3462 15.7624 42.6535 14.9234C42.9689 14.0761 43.3924 13.316 43.9237 12.6431C44.455 11.9619 45.0734 11.368 45.779 10.8612C46.4848 10.3462 47.236 9.91836 48.033 9.57776C48.8299 9.22885 49.6476 8.97134 50.486 8.80519C51.3329 8.63074 52.1547 8.54768 52.9516 8.55599C53.815 8.56428 54.6577 8.6889 55.4796 8.9298C56.3097 9.17071 57.0445 9.54039 57.6837 10.0388C58.3311 10.5289 58.85 11.152 59.2402 11.9079C59.6304 12.6639 59.8255 13.5569 59.8255 14.587C59.8255 15.3014 59.701 16.103 59.4518 16.9919C59.2028 17.8725 58.7712 18.8485 58.1569 19.9202C57.443 21.1663 56.8244 22.2296 56.3014 23.11C55.7784 23.9823 55.3425 24.7176 54.994 25.3157C54.6536 25.9055 54.4003 26.379 54.2342 26.7361C54.0683 27.0851 53.9852 27.3633 53.9852 27.571C53.9852 27.7704 54.0724 27.9283 54.2468 28.0445C54.4294 28.1608 54.6826 28.2191 55.0064 28.2191C55.4463 28.2191 55.9652 28.1027 56.5629 27.8701C57.1607 27.6375 57.8205 27.2887 58.5429 26.8235C59.1988 26.4081 59.8463 25.9305 60.4854 25.3905C61.1248 24.8505 61.7473 24.2772 62.3533 23.6709C62.9677 23.0562 63.5571 22.4207 64.1217 21.7644C64.6944 21.1082 65.2341 20.456 65.7404 19.808C66.2469 19.1518 66.7159 18.5121 67.1475 17.8891C67.5793 17.266 67.9653 16.6804 68.3057 16.1321C68.1396 15.6171 68.0192 15.1269 67.9444 14.6617C67.8699 14.1882 67.8325 13.7438 67.8325 13.3285C67.8325 12.8217 67.8782 12.3731 67.9694 11.9827C68.0608 11.5839 68.181 11.2517 68.3305 10.9858C68.4883 10.7117 68.6709 10.504 68.8785 10.3628C69.0944 10.2216 69.3227 10.151 69.5633 10.151C69.7709 10.151 69.9494 10.2008 70.0989 10.3005C70.2565 10.3919 70.3853 10.5123 70.4848 10.6618C70.5845 10.8114 70.6592 10.9817 70.709 11.1727C70.7588 11.3638 70.7837 11.5549 70.7837 11.7459C70.7837 12.0367 70.7338 12.3897 70.6343 12.8051C70.5347 13.2205 70.352 13.7106 70.0863 14.2755C69.8623 14.7573 69.5467 15.3388 69.1399 16.02C68.7333 16.7011 68.2517 17.4405 67.6954 18.238C67.1475 19.0272 66.5374 19.8454 65.8649 20.6928C65.2008 21.5401 64.4909 22.3709 63.7356 23.1848C62.9801 23.9906 62.1914 24.755 61.3697 25.4777C60.5561 26.2004 59.7301 26.8316 58.8915 27.3716C58.0033 27.9449 57.2437 28.3394 56.6127 28.5555C55.9819 28.7715 55.4506 28.8794 55.0188 28.8794C54.6286 28.8794 54.3006 28.8213 54.035 28.705C53.7777 28.5888 53.5701 28.4309 53.4125 28.2315C53.2547 28.0405 53.1426 27.8244 53.0762 27.5836C53.0097 27.3426 52.9766 27.0975 52.9766 26.8483C52.9766 26.5493 53.0223 26.2335 53.1135 25.9012C53.2049 25.569 53.3461 25.245 53.537 24.9294C53.7612 24.5556 54.0433 24.0987 54.3837 23.5588C54.7241 23.0188 55.0852 22.429 55.467 21.7892C55.8572 21.1496 56.2475 20.4767 56.6377 19.7706C57.0278 19.0562 57.3766 18.346 57.6837 17.6399C57.9991 16.9254 58.2523 16.2276 58.4432 15.5465C58.6425 14.8653 58.7422 14.2339 58.7422 13.6524C58.7422 13.0875 58.6134 12.5393 58.3561 12.0076C58.1071 11.4759 57.7334 11.0024 57.2354 10.5871C56.7455 10.1717 56.1395 9.83944 55.4173 9.59022C54.695 9.3327 53.8607 9.20394 52.9143 9.20394C52.0676 9.20394 51.2499 9.30779 50.4612 9.51545C49.6809 9.71482 48.9461 9.99728 48.257 10.3628C47.5681 10.7283 46.9371 11.1686 46.3643 11.6836C45.7997 12.1904 45.3141 12.7511 44.9073 13.3658C44.5007 13.9723 44.1851 14.6244 43.961 15.3222C43.7368 16.0117 43.6247 16.7219 43.6247 17.4529C43.6247 18.1508 43.7328 18.7696 43.9485 19.3096C44.1727 19.8413 44.4714 20.2857 44.8451 20.643C45.2186 21.0001 45.6504 21.2701 46.1401 21.4529C46.63 21.6356 47.1446 21.727 47.6843 21.727C48.2653 21.727 48.8507 21.6148 49.4401 21.3905C50.0295 21.1663 50.6024 20.8423 51.1585 20.4186C51.7231 19.9949 52.2627 19.484 52.7774 18.8859C53.292 18.2795 53.7693 17.6025 54.2094 16.8548L54.7074 17.1539ZM68.754 15.372C69.0363 14.8985 69.2646 14.4748 69.4388 14.101C69.6214 13.7272 69.7626 13.3949 69.8623 13.1041C69.9618 12.8134 70.0282 12.56 70.0615 12.3441C70.103 12.1197 70.1237 11.9245 70.1237 11.7584C70.1237 11.6587 70.1154 11.5549 70.0989 11.4469C70.0822 11.3306 70.049 11.2267 69.9992 11.1354C69.9577 11.0357 69.8954 10.9567 69.8123 10.8986C69.7378 10.8405 69.634 10.8114 69.5012 10.8114C69.3517 10.8114 69.2146 10.882 69.0901 11.0232C68.9656 11.1561 68.8578 11.3389 68.7664 11.5715C68.6752 11.7958 68.6045 12.0616 68.5547 12.369C68.505 12.668 68.48 12.992 68.48 13.3409C68.48 13.64 68.5007 13.9598 68.5423 14.3004C68.5838 14.641 68.6543 14.9982 68.754 15.372ZM68.1189 25.9886C68.1189 26.2378 68.0275 26.4538 67.8449 26.6365C67.6706 26.8109 67.4548 26.8981 67.1974 26.8981C66.9566 26.8981 66.7449 26.8109 66.5623 26.6365C66.3879 26.4538 66.3008 26.2378 66.3008 25.9886C66.3008 25.7476 66.3879 25.5399 66.5623 25.3655C66.7449 25.1828 66.9566 25.0914 67.1974 25.0914C67.4548 25.0914 67.6706 25.1828 67.8449 25.3655C68.0275 25.5399 68.1189 25.7476 68.1189 25.9886Z" fill="white"/>
<path d="M78.1722 23.0349C78.0321 23.0016 77.9103 22.9555 77.807 22.8963C77.7075 22.8336 77.6262 22.7634 77.5635 22.686C77.5008 22.6083 77.4546 22.5272 77.4252 22.4423C77.3956 22.3537 77.3809 22.2668 77.3809 22.1819C77.3809 21.9973 77.4325 21.8551 77.5359 21.7555C77.6391 21.6521 77.7683 21.6005 77.9232 21.6005C78.0266 21.6005 78.1152 21.6281 78.1889 21.6836C78.2627 21.7352 78.3236 21.8053 78.3716 21.894C78.4195 21.9826 78.4545 22.0859 78.4767 22.2041C78.4988 22.3186 78.51 22.4386 78.51 22.564C78.51 22.6489 78.5062 22.734 78.4988 22.8189C78.4915 22.9 78.4786 22.9831 78.4602 23.068C78.3716 23.4668 78.2406 23.8287 78.0672 24.1535C77.8974 24.4748 77.7038 24.7516 77.4861 24.9843C77.272 25.2131 77.0434 25.3903 76.7997 25.516C76.5563 25.6377 76.3183 25.6987 76.0858 25.6987C75.9271 25.6987 75.7758 25.6765 75.632 25.6322C75.4918 25.5879 75.3664 25.514 75.2557 25.4107C75.1487 25.3072 75.0637 25.1725 75.001 25.0065C74.9383 24.8365 74.907 24.6279 74.907 24.3805C74.907 24.0741 74.966 23.7087 75.0841 23.2841C75.2058 22.8594 75.4107 22.3609 75.6985 21.7887C76.1116 20.9875 76.5268 20.2694 76.9437 19.6344C77.1208 19.3649 77.3071 19.1009 77.5026 18.8425C77.6981 18.584 77.8938 18.3533 78.0893 18.1502C78.2886 17.9471 78.4841 17.7847 78.6759 17.6628C78.8714 17.5373 79.056 17.4745 79.2293 17.4745C79.2515 17.4745 79.2903 17.4782 79.3457 17.4856C79.4047 17.493 79.4637 17.5133 79.5228 17.5466C79.5818 17.5761 79.6333 17.6241 79.6776 17.6905C79.7256 17.7533 79.7497 17.8419 79.7497 17.9564C79.7497 18.093 79.7127 18.2665 79.639 18.477C79.5689 18.6837 79.4619 18.9145 79.3179 19.1692C79.1778 19.4203 79.0025 19.6898 78.7921 19.9778C78.5856 20.2621 78.3458 20.5482 78.0727 20.8361C77.8033 21.1241 77.5026 21.4066 77.1705 21.6836C76.8422 21.9604 76.4843 22.2188 76.0969 22.4589C75.9678 22.7395 75.8589 22.9941 75.7704 23.2231C75.6855 23.4483 75.6172 23.6532 75.5656 23.8379C75.5139 24.0188 75.4771 24.1794 75.4549 24.3197C75.4328 24.4599 75.4216 24.5818 75.4216 24.6852C75.4216 24.8292 75.4401 24.9492 75.4771 25.0451C75.5176 25.1374 75.5711 25.2113 75.6375 25.2666C75.7039 25.3184 75.7796 25.3552 75.8644 25.3774C75.9492 25.3995 76.0378 25.4107 76.1301 25.4107C76.3034 25.4107 76.4713 25.3664 76.6337 25.2778C76.7997 25.1892 76.9566 25.0747 77.1041 24.9343C77.2518 24.7904 77.3864 24.6299 77.5081 24.4527C77.6337 24.2754 77.7424 24.1 77.8347 23.9265C77.9269 23.7493 78.0026 23.583 78.0617 23.428C78.1207 23.2692 78.1575 23.1382 78.1722 23.0349ZM76.3293 21.9549C76.6688 21.7222 76.9805 21.4768 77.2647 21.2184C77.5524 20.9598 77.8125 20.7014 78.0451 20.4431C78.2774 20.1808 78.4822 19.9261 78.6593 19.6787C78.8364 19.4276 78.9841 19.1932 79.102 18.9754C79.2201 18.7575 79.3087 18.5637 79.3677 18.3939C79.4305 18.2203 79.4619 18.0801 79.4619 17.973C79.4619 17.877 79.4268 17.829 79.3567 17.829C79.2239 17.829 79.0634 17.901 78.8751 18.045C78.6908 18.189 78.4749 18.4234 78.2277 18.7483C77.9841 19.0732 77.7038 19.4978 77.3864 20.0221C77.0728 20.5464 76.7205 21.1906 76.3293 21.9549ZM78.211 22.7469C78.2147 22.7136 78.2165 22.6805 78.2165 22.6471C78.2202 22.614 78.2222 22.5825 78.2222 22.553C78.2222 22.3537 78.1963 22.1931 78.1446 22.0712C78.0931 21.9494 78.0192 21.8885 77.9232 21.8885C77.9011 21.8885 77.8752 21.8922 77.8458 21.8995C77.82 21.9032 77.7923 21.9161 77.7628 21.9383C77.7369 21.9567 77.7148 21.9843 77.6963 22.0214C77.6779 22.0582 77.6687 22.1063 77.6687 22.1653C77.6687 22.3166 77.7203 22.4423 77.8237 22.5419C77.9307 22.6379 78.0598 22.7062 78.211 22.7469ZM83.4024 21.8663C83.3544 21.9622 83.2862 22.0878 83.1977 22.2429C83.1127 22.398 83.0206 22.5697 82.9209 22.7579C82.8212 22.9426 82.7199 23.1363 82.6164 23.3394C82.5169 23.5425 82.4246 23.7418 82.3398 23.9375C82.2585 24.1296 82.1903 24.3123 82.1351 24.4858C82.0834 24.6556 82.0575 24.7996 82.0575 24.9179C82.0575 25.0359 82.0796 25.1135 82.1239 25.1504C82.1719 25.1837 82.2328 25.2002 82.3065 25.2002C82.4135 25.2002 82.5224 25.1688 82.6331 25.1061C82.7475 25.0433 82.8582 24.9622 82.9651 24.8624C83.0758 24.7628 83.1828 24.6501 83.2862 24.5246C83.3895 24.399 83.4853 24.2735 83.5739 24.148C83.6661 24.0188 83.7492 23.8969 83.823 23.7824C83.8967 23.6644 83.9596 23.5646 84.0111 23.4834L84.2104 23.6385C84.1477 23.7565 84.0738 23.884 83.989 24.0206C83.9041 24.1572 83.8101 24.2956 83.7067 24.436C83.6071 24.5726 83.4982 24.7055 83.3803 24.8347C83.2621 24.9639 83.1368 25.0784 83.0039 25.178C82.8748 25.2778 82.7383 25.3572 82.5943 25.4162C82.4505 25.4752 82.3028 25.5048 82.1515 25.5048C81.9302 25.5048 81.7679 25.4383 81.6645 25.3054C81.5613 25.1725 81.5095 25.0008 81.5095 24.7904C81.5095 24.7755 81.5095 24.7442 81.5095 24.6963C81.5133 24.6446 81.5188 24.604 81.5262 24.5744C81.3416 24.8071 81.1645 24.999 80.9949 25.1504C80.8288 25.3017 80.6665 25.4217 80.5079 25.5103C80.3529 25.5989 80.2016 25.6599 80.0541 25.6932C79.9101 25.7301 79.7718 25.7485 79.639 25.7485C79.4987 25.7485 79.3659 25.7246 79.2405 25.6765C79.1187 25.6322 79.0117 25.5658 78.9194 25.4772C78.8236 25.3885 78.7498 25.2796 78.698 25.1504C78.6428 25.0212 78.615 24.8716 78.615 24.7018C78.615 24.4913 78.663 24.2513 78.759 23.9818C78.8512 23.7087 79.0172 23.415 79.2572 23.1014C79.4599 22.8318 79.6703 22.6046 79.888 22.4201C80.1094 22.2355 80.3253 22.0878 80.5355 21.9771C80.7496 21.8626 80.9524 21.7814 81.1444 21.7334C81.3362 21.6854 81.5078 21.6614 81.659 21.6614C81.9985 21.6614 82.255 21.7185 82.4283 21.833C82.6017 21.9438 82.7069 22.1155 82.7438 22.3482C82.8176 22.2558 82.895 22.1635 82.9763 22.0712C83.0574 21.9788 83.1405 21.8847 83.2253 21.7887L83.4024 21.8663ZM81.7033 23.9708C81.7513 23.8932 81.8103 23.7953 81.8804 23.6773C81.9505 23.5554 82.0242 23.4317 82.1018 23.3062C82.1793 23.177 82.255 23.0533 82.3286 22.9351C82.4025 22.8169 82.467 22.7173 82.5224 22.6362C82.5224 22.6028 82.5169 22.5493 82.5057 22.4754C82.4985 22.4017 82.4744 22.3278 82.4338 22.2539C82.3933 22.1764 82.3286 22.11 82.2401 22.0545C82.1515 21.9992 82.0279 21.9716 81.8694 21.9716C81.755 21.9716 81.6257 21.99 81.4819 22.0269C81.3416 22.0602 81.1904 22.1192 81.0282 22.2041C80.8695 22.2853 80.7053 22.3942 80.5355 22.5309C80.3658 22.6675 80.1962 22.8373 80.0263 23.0404C79.7718 23.3468 79.5743 23.6552 79.4343 23.9653C79.2977 24.2717 79.2293 24.5485 79.2293 24.7959C79.2293 25.0065 79.2773 25.1688 79.3733 25.2833C79.4691 25.3978 79.6057 25.455 79.7828 25.455C79.9858 25.455 80.1758 25.4107 80.3529 25.3221C80.53 25.2298 80.6959 25.1116 80.8511 24.9677C81.0059 24.8236 81.1536 24.6648 81.2938 24.4913C81.4339 24.3141 81.5705 24.1406 81.7033 23.9708ZM87.1713 23.0349C87.0311 23.0016 86.9094 22.9555 86.806 22.8963C86.7064 22.8336 86.6253 22.7634 86.5626 22.686C86.4998 22.6083 86.4537 22.5272 86.4241 22.4423C86.3947 22.3537 86.3799 22.2668 86.3799 22.1819C86.3799 21.9973 86.4316 21.8551 86.5348 21.7555C86.6383 21.6521 86.7674 21.6005 86.9223 21.6005C87.0256 21.6005 87.1141 21.6281 87.188 21.6836C87.2617 21.7352 87.3226 21.8053 87.3706 21.894C87.4186 21.9826 87.4536 22.0859 87.4758 22.2041C87.4979 22.3186 87.5089 22.4386 87.5089 22.564C87.5089 22.6489 87.5052 22.734 87.4979 22.8189C87.4905 22.9 87.4775 22.9831 87.4591 23.068C87.3706 23.4668 87.2395 23.8287 87.0661 24.1535C86.8965 24.4748 86.7027 24.7516 86.4851 24.9843C86.2711 25.2131 86.0423 25.3903 85.7988 25.516C85.5553 25.6377 85.3172 25.6987 85.0849 25.6987C84.9262 25.6987 84.775 25.6765 84.631 25.6322C84.4909 25.5879 84.3653 25.514 84.2546 25.4107C84.1477 25.3072 84.0628 25.1725 84.0001 25.0065C83.9374 24.8365 83.9061 24.6279 83.9061 24.3805C83.9061 24.0741 83.9651 23.7087 84.0832 23.2841C84.2049 22.8594 84.4096 22.3609 84.6974 21.7887C85.1107 20.9875 85.5257 20.2694 85.9428 19.6344C86.1199 19.3649 86.3062 19.1009 86.5017 18.8425C86.6972 18.584 86.8928 18.3533 87.0883 18.1502C87.2875 17.9471 87.483 17.7847 87.675 17.6628C87.8705 17.5373 88.0551 17.4745 88.2285 17.4745C88.2506 17.4745 88.2894 17.4782 88.3446 17.4856C88.4036 17.493 88.4628 17.5133 88.5217 17.5466C88.5807 17.5761 88.6324 17.6241 88.6767 17.6905C88.7247 17.7533 88.7486 17.8419 88.7486 17.9564C88.7486 18.093 88.7118 18.2665 88.6379 18.477C88.5678 18.6837 88.4608 18.9145 88.317 19.1692C88.1767 19.4203 88.0014 19.6898 87.7912 19.9778C87.5845 20.2621 87.3447 20.5482 87.0716 20.8361C86.8024 21.1241 86.5017 21.4066 86.1696 21.6836C85.8413 21.9604 85.4834 22.2188 85.0959 22.4589C84.9668 22.7395 84.8578 22.9941 84.7693 23.2231C84.6845 23.4483 84.6163 23.6532 84.5646 23.8379C84.513 24.0188 84.476 24.1794 84.4539 24.3197C84.4317 24.4599 84.4208 24.5818 84.4208 24.6852C84.4208 24.8292 84.4392 24.9492 84.476 25.0451C84.5166 25.1374 84.5702 25.2113 84.6365 25.2666C84.7031 25.3184 84.7787 25.3552 84.8635 25.3774C84.9483 25.3995 85.0369 25.4107 85.1292 25.4107C85.3025 25.4107 85.4704 25.3664 85.6328 25.2778C85.7988 25.1892 85.9555 25.0747 86.1032 24.9343C86.2508 24.7904 86.3855 24.6299 86.5072 24.4527C86.6326 24.2754 86.7415 24.1 86.8338 23.9265C86.926 23.7493 87.0017 23.583 87.0606 23.428C87.1196 23.2692 87.1566 23.1382 87.1713 23.0349ZM85.3284 21.9549C85.6677 21.7222 85.9796 21.4768 86.2637 21.2184C86.5515 20.9598 86.8116 20.7014 87.044 20.4431C87.2765 20.1808 87.4813 19.9261 87.6584 19.6787C87.8355 19.4276 87.983 19.1932 88.1011 18.9754C88.2192 18.7575 88.3078 18.5637 88.3668 18.3939C88.4295 18.2203 88.4608 18.0801 88.4608 17.973C88.4608 17.877 88.4258 17.829 88.3556 17.829C88.2228 17.829 88.0623 17.901 87.8743 18.045C87.6897 18.189 87.4738 18.4234 87.2268 18.7483C86.9831 19.0732 86.7027 19.4978 86.3855 20.0221C86.0719 20.5464 85.7194 21.1906 85.3284 21.9549ZM87.2101 22.7469C87.2138 22.7136 87.2156 22.6805 87.2156 22.6471C87.2193 22.614 87.2211 22.5825 87.2211 22.553C87.2211 22.3537 87.1952 22.1931 87.1437 22.0712C87.092 21.9494 87.0181 21.8885 86.9223 21.8885C86.9002 21.8885 86.8743 21.8922 86.8448 21.8995C86.8189 21.9032 86.7913 21.9161 86.7617 21.9383C86.736 21.9567 86.7139 21.9843 86.6955 22.0214C86.6769 22.0582 86.6677 22.1063 86.6677 22.1653C86.6677 22.3166 86.7194 22.4423 86.8226 22.5419C86.9296 22.6379 87.0589 22.7062 87.2101 22.7469ZM90.4532 24.3141C90.3094 24.4729 90.1637 24.6205 90.0161 24.7571C89.8684 24.89 89.7227 25.0065 89.5789 25.1061C89.4349 25.2058 89.2928 25.2851 89.1526 25.3442C89.0162 25.3995 88.8834 25.4274 88.7541 25.4274C88.6103 25.4274 88.4792 25.4015 88.3613 25.3497C88.2469 25.2944 88.1472 25.2168 88.0623 25.1172C87.9812 25.0175 87.9185 24.8992 87.8743 24.7628C87.83 24.6262 87.8078 24.4748 87.8078 24.3086C87.8078 24.087 87.8539 23.8563 87.9462 23.6164C88.0384 23.3764 88.1566 23.1437 88.3004 22.9185C88.4479 22.6897 88.6103 22.4736 88.7874 22.2705C88.9682 22.0675 89.1434 21.8922 89.3132 21.7444L89.5511 21.9106C89.5068 21.9734 89.446 22.0602 89.3685 22.171C89.2911 22.2817 89.208 22.4109 89.1195 22.5585C89.0309 22.7026 88.9406 22.8595 88.8483 23.0292C88.7598 23.1992 88.6785 23.3727 88.6048 23.5499C88.5309 23.7271 88.47 23.9043 88.4222 24.0816C88.3779 24.2588 88.3556 24.4248 88.3556 24.5799C88.3556 24.6538 88.3613 24.7257 88.3723 24.7959C88.3871 24.8624 88.4093 24.9214 88.4387 24.9731C88.472 25.0249 88.5143 25.0655 88.566 25.0951C88.6177 25.1245 88.6841 25.1394 88.7653 25.1394C88.8944 25.1394 89.0346 25.1006 89.1859 25.0229C89.3408 24.9418 89.4995 24.8328 89.6619 24.6963C89.8279 24.556 89.9958 24.3935 90.1654 24.209C90.3388 24.0243 90.5087 23.8267 90.6746 23.6164C90.8407 23.4058 91.0012 23.19 91.1561 22.9684C91.3111 22.7432 91.4549 22.5217 91.5877 22.3039C91.7059 22.108 91.824 21.9124 91.9419 21.7167C92.0601 21.5174 92.1782 21.3235 92.2962 21.1353L92.5563 21.2682C92.5526 21.2755 92.5175 21.3456 92.4513 21.4786C92.3884 21.6077 92.3036 21.785 92.1966 22.0102C92.0896 22.2317 91.9643 22.4903 91.8203 22.7856C91.68 23.0773 91.5307 23.3893 91.372 23.7216C91.2133 24.0502 91.0509 24.388 90.885 24.735C90.7226 25.0821 90.5639 25.4199 90.4089 25.7485C90.9293 25.4605 91.3997 25.119 91.8203 24.724C92.2446 24.329 92.608 23.9153 92.9105 23.4834L93.1154 23.6385C92.7943 24.1296 92.3959 24.5836 91.92 25.0008C91.4439 25.4144 90.8701 25.8112 90.1987 26.1915C89.8925 26.8487 89.5918 27.4487 89.2966 27.9914C89.0051 28.5342 88.7118 28.9994 88.4165 29.387C88.125 29.7747 87.8337 30.0737 87.5422 30.2842C87.247 30.4983 86.9482 30.6054 86.6455 30.6054C86.4463 30.6054 86.2803 30.5389 86.1475 30.406C86.0147 30.2731 85.9483 30.0829 85.9483 29.8357C85.9483 29.6289 85.9943 29.4166 86.0866 29.1988C86.1789 28.981 86.3062 28.7612 86.4684 28.5397C86.6308 28.3219 86.8246 28.1041 87.0497 27.8863C87.271 27.672 87.5144 27.4654 87.78 27.266C88.0421 27.0666 88.317 26.8765 88.6048 26.6955C88.8963 26.5146 89.1914 26.3484 89.4903 26.197C89.5677 26.0347 89.6508 25.863 89.7393 25.682C89.8279 25.5048 89.9146 25.3331 89.9995 25.167C90.0843 24.9971 90.1654 24.8385 90.243 24.6907C90.3241 24.5393 90.3942 24.4138 90.4532 24.3141ZM89.2356 26.7344C88.8113 26.9965 88.4165 27.2752 88.0514 27.5705C87.6897 27.8696 87.3761 28.1631 87.1104 28.4511C86.841 28.7428 86.6308 29.0161 86.4796 29.2707C86.3283 29.5256 86.2527 29.7414 86.2527 29.9186C86.2527 30.0368 86.2876 30.1309 86.3577 30.2011C86.4241 30.2713 86.5109 30.3064 86.6179 30.3064C86.7617 30.3064 86.9112 30.2566 87.0661 30.1568C87.2174 30.0608 87.3706 29.9278 87.5255 29.7581C87.6768 29.5883 87.828 29.387 87.9795 29.1545C88.1307 28.9255 88.2782 28.6781 88.4222 28.4123C88.5697 28.1502 88.7118 27.8751 88.8483 27.5871C88.9849 27.3029 89.114 27.0186 89.2356 26.7344ZM98.0134 21.2017C97.995 21.2349 97.9709 21.2719 97.9415 21.3125C97.9119 21.3494 97.8823 21.3937 97.8529 21.4454C97.8271 21.4934 97.803 21.5507 97.7808 21.6171C97.7624 21.6836 97.7532 21.7628 97.7532 21.8551C97.7532 21.9328 97.7716 22.038 97.8086 22.171C97.8492 22.3039 97.8915 22.457 97.9358 22.6305C97.9801 22.8004 98.0206 22.9869 98.0576 23.19C98.0982 23.3893 98.1186 23.596 98.1186 23.8102C98.1186 24.1239 98.0761 24.4009 97.9912 24.6409C97.9064 24.8808 97.7938 25.0857 97.6535 25.2556C97.9415 25.1006 98.2236 24.879 98.5004 24.5911C98.777 24.2994 99.0556 23.9302 99.336 23.4834L99.5242 23.6495C99.3656 23.9116 99.1847 24.1719 98.9818 24.4305C98.7827 24.6852 98.5631 24.9159 98.3233 25.1227C98.0835 25.3258 97.8251 25.4901 97.5485 25.6156C97.2717 25.7448 96.9784 25.8094 96.6685 25.8094C96.3918 25.8094 96.1593 25.743 95.971 25.6101C95.7792 25.4809 95.6611 25.2851 95.6168 25.0229L95.8162 24.9843C95.8162 25.0065 95.8272 25.0433 95.8494 25.0951C95.8678 25.1429 95.8991 25.1909 95.9434 25.239C95.9877 25.287 96.0486 25.3294 96.1262 25.3664C96.1998 25.4033 96.2921 25.4217 96.4028 25.4217C96.5503 25.4217 96.6814 25.3885 96.7958 25.3221C96.9102 25.2519 97.0097 25.1615 97.0946 25.0508C97.1794 24.94 97.2515 24.8144 97.3105 24.6742C97.3694 24.5301 97.4157 24.3825 97.4488 24.2311C97.4858 24.0796 97.5115 23.932 97.5263 23.7881C97.541 23.644 97.5485 23.5129 97.5485 23.3948C97.5485 23.2766 97.543 23.1457 97.5318 23.0016C97.5244 22.8577 97.5152 22.721 97.5042 22.5918C97.493 22.4589 97.4821 22.3444 97.4709 22.2484C97.4636 22.1488 97.4599 22.0841 97.4599 22.0545V22.0435C97.4119 22.0951 97.3547 22.171 97.2883 22.2705C97.2219 22.3703 97.15 22.4791 97.0724 22.5973C96.9988 22.7154 96.9231 22.8355 96.8456 22.9573C96.7717 23.0792 96.7035 23.19 96.6408 23.2896C96.5817 23.3893 96.5319 23.4723 96.4914 23.5387C96.4545 23.6015 96.4361 23.6348 96.4361 23.6385L96.2367 23.4834C96.2404 23.4797 96.2866 23.4003 96.3752 23.2453C96.4637 23.0902 96.5799 22.8945 96.7237 22.6583C96.8714 22.4182 97.0374 22.1543 97.2219 21.8663C97.4064 21.5746 97.5965 21.2921 97.792 21.019L98.0134 21.2017ZM100.46 20.9802C100.497 20.9175 100.561 20.8085 100.653 20.6534C100.749 20.4984 100.86 20.3266 100.985 20.1384C101.114 19.9501 101.253 19.7618 101.4 19.5735C101.552 19.3815 101.699 19.2191 101.843 19.0861L102.092 19.2357C101.934 19.4978 101.771 19.7766 101.605 20.0719C101.439 20.3637 101.275 20.6664 101.113 20.9802H102.917L102.806 21.2682H100.963C100.797 21.6005 100.64 21.9308 100.493 22.2596C100.349 22.5881 100.221 22.902 100.111 23.201C100 23.5001 99.9135 23.7806 99.8508 24.0427C99.7881 24.3011 99.7568 24.5264 99.7568 24.7185C99.7568 24.9584 99.812 25.1319 99.9227 25.239C100.033 25.3423 100.17 25.394 100.332 25.394C100.476 25.394 100.624 25.3515 100.775 25.2666C100.926 25.178 101.074 25.0673 101.218 24.9343C101.365 24.8014 101.504 24.6556 101.633 24.497C101.766 24.3382 101.882 24.1886 101.982 24.0482C102.085 23.9081 102.17 23.7861 102.236 23.6828C102.302 23.5758 102.343 23.5093 102.358 23.4834L102.563 23.6385C102.433 23.8526 102.288 24.0796 102.125 24.3197C101.963 24.5597 101.782 24.783 101.583 24.9898C101.388 25.1929 101.174 25.3627 100.941 25.4993C100.709 25.6322 100.458 25.6987 100.188 25.6987C100.022 25.6987 99.8767 25.6691 99.7511 25.6101C99.6294 25.5509 99.526 25.4697 99.4412 25.3664C99.3563 25.2594 99.2936 25.1337 99.2531 24.9898C99.2088 24.8457 99.1867 24.6889 99.1867 24.5191C99.1867 24.4083 99.2051 24.2513 99.2419 24.0482C99.2752 23.8451 99.3342 23.6052 99.419 23.3284C99.5039 23.0477 99.6165 22.734 99.7568 22.3868C99.9006 22.0398 100.081 21.6669 100.299 21.2682H99.3803L99.4911 20.9802H100.46ZM106.758 21.8663C106.71 21.9622 106.641 22.0878 106.553 22.2429C106.468 22.398 106.376 22.5697 106.276 22.7579C106.177 22.9426 106.075 23.1363 105.972 23.3394C105.872 23.5425 105.78 23.7418 105.695 23.9375C105.614 24.1296 105.546 24.3123 105.49 24.4858C105.439 24.6556 105.413 24.7996 105.413 24.9179C105.413 25.0359 105.435 25.1135 105.479 25.1504C105.527 25.1837 105.588 25.2002 105.662 25.2002C105.769 25.2002 105.878 25.1688 105.988 25.1061C106.103 25.0433 106.214 24.9622 106.321 24.8624C106.431 24.7628 106.538 24.6501 106.641 24.5246C106.745 24.399 106.841 24.2735 106.929 24.148C107.022 24.0188 107.105 23.8969 107.178 23.7824C107.252 23.6644 107.315 23.5646 107.367 23.4834L107.566 23.6385C107.503 23.7565 107.429 23.884 107.344 24.0206C107.26 24.1572 107.166 24.2956 107.062 24.436C106.963 24.5726 106.854 24.7055 106.736 24.8347C106.618 24.9639 106.492 25.0784 106.359 25.178C106.23 25.2778 106.094 25.3572 105.95 25.4162C105.806 25.4752 105.658 25.5048 105.507 25.5048C105.286 25.5048 105.123 25.4383 105.02 25.3054C104.917 25.1725 104.865 25.0008 104.865 24.7904C104.865 24.7755 104.865 24.7442 104.865 24.6963C104.869 24.6446 104.874 24.604 104.882 24.5744C104.697 24.8071 104.52 24.999 104.35 25.1504C104.184 25.3017 104.022 25.4217 103.863 25.5103C103.708 25.5989 103.557 25.6599 103.409 25.6932C103.266 25.7301 103.127 25.7485 102.994 25.7485C102.854 25.7485 102.721 25.7246 102.596 25.6765C102.474 25.6322 102.367 25.5658 102.275 25.4772C102.179 25.3885 102.105 25.2796 102.053 25.1504C101.998 25.0212 101.971 24.8716 101.971 24.7018C101.971 24.4913 102.018 24.2513 102.114 23.9818C102.207 23.7087 102.373 23.415 102.612 23.1014C102.815 22.8318 103.026 22.6046 103.243 22.4201C103.465 22.2355 103.681 22.0878 103.891 21.9771C104.105 21.8626 104.308 21.7814 104.5 21.7334C104.692 21.6854 104.863 21.6614 105.014 21.6614C105.354 21.6614 105.61 21.7185 105.784 21.833C105.957 21.9438 106.062 22.1155 106.099 22.3482C106.173 22.2558 106.25 22.1635 106.332 22.0712C106.413 21.9788 106.496 21.8847 106.581 21.7887L106.758 21.8663ZM105.059 23.9708C105.107 23.8932 105.166 23.7953 105.236 23.6773C105.306 23.5554 105.38 23.4317 105.457 23.3062C105.535 23.177 105.61 23.0533 105.684 22.9351C105.758 22.8169 105.823 22.7173 105.878 22.6362C105.878 22.6028 105.872 22.5493 105.861 22.4754C105.854 22.4017 105.83 22.3278 105.789 22.2539C105.749 22.1764 105.684 22.11 105.595 22.0545C105.507 21.9992 105.383 21.9716 105.225 21.9716C105.11 21.9716 104.981 21.99 104.837 22.0269C104.697 22.0602 104.546 22.1192 104.383 22.2041C104.225 22.2853 104.061 22.3942 103.891 22.5309C103.721 22.6675 103.552 22.8373 103.382 23.0404C103.127 23.3468 102.93 23.6552 102.789 23.9653C102.653 24.2717 102.585 24.5485 102.585 24.7959C102.585 25.0065 102.633 25.1688 102.729 25.2833C102.825 25.3978 102.961 25.455 103.138 25.455C103.341 25.455 103.531 25.4107 103.708 25.3221C103.885 25.2298 104.052 25.1116 104.206 24.9677C104.361 24.8236 104.509 24.6648 104.649 24.4913C104.789 24.3141 104.926 24.1406 105.059 23.9708ZM111.379 17.4912C111.508 17.4912 111.615 17.5225 111.7 17.5853C111.789 17.6481 111.833 17.7625 111.833 17.9287C111.833 18.0431 111.809 18.1797 111.761 18.3385C111.717 18.4972 111.654 18.6708 111.573 18.8591C111.495 19.0437 111.403 19.2394 111.296 19.4461C111.189 19.6492 111.073 19.8522 110.947 20.0553C110.826 20.2584 110.696 20.4558 110.56 20.6479C110.427 20.8399 110.294 21.0171 110.162 21.1796C109.896 21.5082 109.665 21.785 109.47 22.0102C109.278 22.2355 109.112 22.4274 108.972 22.5862C108.831 22.7412 108.713 22.8687 108.617 22.9684C108.521 23.0643 108.437 23.1474 108.363 23.2176C108.289 23.2878 108.221 23.3523 108.158 23.4115C108.095 23.4668 108.031 23.5295 107.964 23.5997C107.935 23.7401 107.92 23.8747 107.92 24.0039C107.924 24.1296 107.925 24.2458 107.925 24.3529C107.925 24.6742 107.977 24.9122 108.081 25.0673C108.184 25.2223 108.33 25.2999 108.518 25.2999C108.643 25.2999 108.769 25.2686 108.894 25.2058C109.023 25.1394 109.15 25.0543 109.276 24.951C109.401 24.8477 109.523 24.7312 109.641 24.602C109.759 24.4691 109.87 24.3362 109.973 24.2033C110.08 24.0667 110.176 23.9357 110.261 23.8102C110.346 23.6846 110.42 23.5758 110.482 23.4834L110.687 23.6385C110.676 23.6532 110.639 23.7122 110.576 23.8157C110.518 23.9153 110.438 24.0373 110.339 24.1812C110.239 24.3252 110.121 24.4803 109.984 24.6464C109.848 24.8089 109.7 24.9602 109.542 25.1006C109.383 25.2407 109.215 25.3572 109.038 25.4495C108.865 25.5417 108.688 25.5879 108.507 25.5879C108.355 25.5879 108.21 25.5603 108.069 25.5048C107.933 25.4458 107.811 25.3552 107.704 25.2335C107.601 25.1078 107.516 24.9492 107.45 24.7571C107.387 24.5652 107.356 24.3344 107.356 24.0649C107.356 23.7289 107.394 23.3782 107.472 23.0127C107.553 22.6434 107.662 22.2743 107.798 21.9051C107.935 21.5321 108.095 21.1647 108.28 20.803C108.464 20.4411 108.66 20.0978 108.866 19.7729C109.077 19.4443 109.294 19.1415 109.519 18.8646C109.748 18.584 109.972 18.3422 110.189 18.1391C110.411 17.9361 110.623 17.7773 110.826 17.6628C111.028 17.5484 111.213 17.4912 111.379 17.4912ZM108.064 23.1068C108.378 22.7818 108.68 22.4533 108.972 22.121C109.267 21.785 109.542 21.4546 109.796 21.1298C110.054 20.801 110.291 20.4836 110.505 20.1772C110.719 19.867 110.901 19.5753 111.053 19.3021C111.204 19.0289 111.322 18.7797 111.407 18.5545C111.492 18.3293 111.534 18.1354 111.534 17.973C111.534 17.9434 111.519 17.9047 111.49 17.8567C111.46 17.805 111.425 17.7792 111.385 17.7792C111.27 17.7792 111.119 17.8548 110.931 18.0062C110.743 18.1576 110.538 18.3643 110.316 18.6265C110.099 18.8849 109.872 19.1877 109.636 19.5347C109.403 19.8818 109.184 20.2529 108.977 20.6479C108.77 21.043 108.586 21.4509 108.424 21.8718C108.261 22.2927 108.141 22.7044 108.064 23.1068ZM110.903 24.2864C110.896 24.3307 110.89 24.375 110.886 24.4193C110.883 24.4636 110.881 24.5079 110.881 24.5522C110.881 24.6852 110.899 24.8126 110.936 24.9343C110.977 25.0525 111.034 25.1578 111.108 25.2501C111.185 25.3387 111.279 25.4088 111.39 25.4605C111.505 25.5122 111.634 25.5381 111.777 25.5381C112.261 25.5381 112.728 25.3737 113.178 25.0451C113.628 24.7165 114.076 24.196 114.523 23.4834L114.711 23.6495C114.467 24.0557 114.22 24.399 113.969 24.6797C113.718 24.9565 113.467 25.1817 113.217 25.3552C112.969 25.5287 112.726 25.6544 112.486 25.7318C112.246 25.8094 112.017 25.8483 111.8 25.8483C111.641 25.8483 111.473 25.8261 111.296 25.7818C111.119 25.7375 110.955 25.6636 110.803 25.5603C110.656 25.4568 110.534 25.3184 110.438 25.1449C110.339 24.9714 110.289 24.7553 110.289 24.497C110.289 24.22 110.337 23.9541 110.433 23.6995C110.525 23.4409 110.647 23.201 110.798 22.9794C110.949 22.7579 111.123 22.5568 111.318 22.3758C111.514 22.1912 111.711 22.0343 111.91 21.9051C112.113 21.7758 112.311 21.6762 112.502 21.606C112.694 21.5321 112.864 21.4952 113.012 21.4952C113.108 21.4952 113.205 21.5099 113.305 21.5395C113.405 21.5691 113.493 21.6152 113.571 21.6779C113.652 21.7407 113.716 21.8238 113.764 21.9273C113.816 22.0306 113.842 22.1543 113.842 22.2982C113.842 22.4938 113.796 22.6785 113.704 22.852C113.615 23.022 113.495 23.1806 113.344 23.3284C113.192 23.4723 113.017 23.6034 112.818 23.7216C112.619 23.8359 112.41 23.9338 112.193 24.0151C111.975 24.0963 111.755 24.1609 111.534 24.209C111.313 24.2568 111.102 24.2827 110.903 24.2864ZM110.947 24.0482C111.195 24.0224 111.427 23.9708 111.645 23.8932C111.862 23.8157 112.062 23.7216 112.242 23.6109C112.423 23.4964 112.584 23.3727 112.724 23.2398C112.868 23.1068 112.988 22.972 113.084 22.8355C113.18 22.6989 113.253 22.5677 113.305 22.4423C113.357 22.3166 113.383 22.2041 113.383 22.1045C113.383 22.0047 113.355 21.9253 113.299 21.8663C113.248 21.8071 113.185 21.7777 113.111 21.7777C112.949 21.7777 112.766 21.8367 112.563 21.9549C112.36 22.0694 112.157 22.23 111.955 22.4368C111.752 22.6397 111.56 22.8798 111.379 23.1566C111.202 23.4336 111.058 23.7308 110.947 24.0482Z" fill="white"/>
<path d="M128.137 31.8539H124.714C124.714 31.8539 126.349 28.3866 126.54 27.2898C126.73 26.193 127.11 23.9357 127.11 23.6811C127.11 23.3626 127.452 20.603 127.452 20.603C127.452 20.603 127.402 18.7789 126.768 17.8433C126.107 16.8685 124.258 16.0389 124.258 16.0389C123.893 15.6144 121.976 15.3667 121.177 15.4021C120.378 15.4375 119.237 15.2959 119.237 15.2959L121.747 15.0837L120.15 14.2345C120.15 14.2345 119.028 13.8582 118.667 13.4916L118.781 13.067L119.237 13.7038C119.237 13.7038 120.215 14.0727 120.721 13.81C121.079 13.6237 121.405 13.067 121.405 13.067C121.405 13.067 121.691 12.5682 121.747 12.2179C121.787 11.9719 121.599 11.788 121.747 11.581C121.97 11.2706 122.388 11.4829 122.774 11.581C123.063 11.6542 123.459 11.8994 123.459 11.8994L122.774 12.2179L123.117 12.6424C123.117 12.6424 123.406 12.8656 123.459 13.067C123.539 13.3737 123.117 13.81 123.117 13.81C123.117 13.81 122.259 14.1463 122.318 14.553C122.356 14.816 122.774 15.0837 122.774 15.0837L123.687 15.2959L125.285 15.6144C125.908 15.7387 125.955 15.4199 126.083 15.0837C126.157 14.8883 126.083 14.553 126.083 14.553C126.083 13.8898 126.08 13.4028 126.197 12.7486C126.311 12.1117 126.301 11.9198 126.54 11.4749L126.996 10.6258C126.996 10.6258 127.423 9.7939 127.909 9.67051C128.167 9.60506 128.137 9.67051 128.137 9.67051C128.137 9.67051 127.567 10.0951 127.452 10.5196C127.338 10.9442 126.981 12.2288 126.996 13.067C127.009 13.8233 126.791 14.928 127.681 15.9328C128.043 16.3426 128.434 16.7182 128.708 16.8881C128.981 17.0579 129.696 17.1357 130.305 17.4188C130.913 17.7018 132.275 16.7398 132.815 16.3574C133.242 16.055 133.331 15.8263 133.614 15.4021C133.963 14.8785 133.956 13.81 133.956 13.81L134.07 13.4916C134.065 13.6227 134.07 14.0223 134.07 14.7652C134.07 15.5082 132.587 17.2065 132.587 17.2065C132.587 17.2065 131.46 17.9508 130.647 18.6924C130.24 19.0641 129.734 19.7538 129.734 19.7538C129.734 19.7538 129.013 21.0132 128.708 21.8766C128.146 23.4638 127.907 24.2524 127.681 25.91C127.505 27.1952 127.62 28.1183 127.681 29.4127C127.726 30.3794 128.137 31.8539 128.137 31.8539Z" fill="#FF7481"/>
<path d="M127.174 23.4471C133.385 23.4471 138.42 18.7629 138.42 12.9847C138.42 7.20651 133.385 2.52234 127.174 2.52234C120.963 2.52234 115.928 7.20651 115.928 12.9847C115.928 18.7629 120.963 23.4471 127.174 23.4471Z" fill="url(#paint0_radial)" fill-opacity="0.5"/>
<g filter="url(#filter1_d)">
<path d="M133.98 34.2425H7.35066" stroke="white" stroke-opacity="0.8" stroke-width="0.5"/>
</g>
</g>
<defs>
<filter id="filter0_b" x="-9.14647" y="-9.14647" width="160.293" height="57.6711" filterUnits="userSpaceOnUse" color-interpolation-filters="sRGB">
<feFlood flood-opacity="0" result="BackgroundImageFix"/>
<feGaussianBlur in="BackgroundImage" stdDeviation="4.57324"/>
<feComposite in2="SourceAlpha" operator="in" result="effect1_backgroundBlur"/>
<feBlend mode="normal" in="SourceGraphic" in2="effect1_backgroundBlur" result="shape"/>
</filter>
<filter id="filter1_d" x="3.35034" y="33.9925" width="134.63" height="8.5" filterUnits="userSpaceOnUse" color-interpolation-filters="sRGB">
<feFlood flood-opacity="0" result="BackgroundImageFix"/>
<feColorMatrix in="SourceAlpha" type="matrix" values="0 0 0 0 0 0 0 0 0 0 0 0 0 0 0 0 0 0 127 0"/>
<feOffset dy="4"/>
<feGaussianBlur stdDeviation="2"/>
<feColorMatrix type="matrix" values="0 0 0 0 0 0 0 0 0 0 0 0 0 0 0 0 0 0 0.25 0"/>
<feBlend mode="normal" in2="BackgroundImageFix" result="effect1_dropShadow"/>
<feBlend mode="normal" in="SourceGraphic" in2="effect1_dropShadow" result="shape"/>
</filter>
<radialGradient id="paint0_radial" cx="0" cy="0" r="1" gradientUnits="userSpaceOnUse" gradientTransform="translate(127.174 12.9847) rotate(90) scale(10.4624 11.246)">
<stop offset="0.296875" stop-color="white"/>
<stop offset="1" stop-color="#FF7481"/>
</radialGradient>
<clipPath id="clip0">
<rect width="134.244" height="35.7983" fill="white" transform="translate(4.17651 2.38654)"/>
</clipPath>
</defs>
</svg>
