<svg width="80" height="16" viewBox="0 0 80 16" fill="none" xmlns="http://www.w3.org/2000/svg">
<path d="M8.00024 1.88642L9.32323 5.75681L9.43886 6.09508H9.79636H14.0048L10.6223 8.43113L10.3109 8.64618L10.4333 9.00427L11.7389 12.8239L8.28438 10.4382L8.00024 10.2419L7.71611 10.4382L4.26155 12.8239L5.5672 9.00427L5.6896 8.64618L5.37821 8.43113L1.99565 6.09508H6.20413H6.56162L6.67726 5.75681L8.00024 1.88642Z" fill="white" stroke="#FF7481"/>
<path d="M24.0002 1.88642L25.3232 5.75681L25.4389 6.09508H25.7964H30.0048L26.6223 8.43113L26.3109 8.64618L26.4333 9.00427L27.7389 12.8239L24.2844 10.4382L24.0002 10.2419L23.7161 10.4382L20.2615 12.8239L21.5672 9.00427L21.6896 8.64618L21.3782 8.43113L17.9957 6.09508H22.2041H22.5616L22.6773 5.75681L24.0002 1.88642Z" fill="white" stroke="#FF7481"/>
<path d="M40.0002 1.88642L41.3232 5.75681L41.4389 6.09508H41.7964H46.0048L42.6223 8.43113L42.3109 8.64618L42.4333 9.00427L43.7389 12.8239L40.2844 10.4382L40.0002 10.2419L39.7161 10.4382L36.2615 12.8239L37.5672 9.00427L37.6896 8.64618L37.3782 8.43113L33.9957 6.09508H38.2041H38.5616L38.6773 5.75681L40.0002 1.88642Z" fill="white" stroke="#FF7481"/>
<path d="M56 1.88642L57.323 5.75681L57.4386 6.09508H57.7961H62.0046L58.622 8.43113L58.3106 8.64618L58.433 9.00427L59.7387 12.8239L56.2841 10.4382L56 10.2419L55.7159 10.4382L52.2613 12.8239L53.567 9.00427L53.6894 8.64618L53.378 8.43113L49.9954 6.09508H54.2039H54.5614L54.677 5.75681L56 1.88642Z" fill="white" stroke="#FF7481"/>
<path d="M72 1.88642L73.323 5.75681L73.4386 6.09508H73.7961H78.0046L74.622 8.43113L74.3106 8.64618L74.433 9.00427L75.7387 12.8239L72.2841 10.4382L72 10.2419L71.7159 10.4382L68.2613 12.8239L69.567 9.00427L69.6894 8.64618L69.378 8.43113L65.9954 6.09508H70.2039H70.5614L70.677 5.75681L72 1.88642Z" fill="white" stroke="#FF7481"/>
</svg>
