<svg width="17" height="22" viewBox="0 0 17 22" fill="none" xmlns="http://www.w3.org/2000/svg">
<path d="M8.85901 19.4203L4.60815 10.9185L4.84431 10.6824L7.41999 8.34086C7.4259 8.33193 7.43324 8.32521 7.44206 8.3208L7.41999 8.34086C7.10954 8.81034 10.7483 15.4056 10.7483 15.4056H14.0545C14.0545 15.4056 15.7085 16.2783 15.9438 17.2948C16.2726 18.7155 15.108 19.6843 13.8183 20.3649C12.0747 21.285 8.85901 19.4203 8.85901 19.4203Z" fill="#FF7481" stroke="#FF7481"/>
<path d="M3.05601 7.35626L4.6082 10.9184L10.0539 15.0027C10.1472 15.1318 10.2231 15.1934 10.276 15.1693L10.0539 15.0027C9.29274 13.9496 7.37537 8.40926 7.37537 8.40926L9.48531 5.81696C9.48531 5.81696 9.86399 3.9692 9.22573 3.14303C8.33373 1.98843 6.83914 2.28995 5.48828 2.87151C3.66188 3.65779 3.05601 7.35626 3.05601 7.35626Z" fill="#FF7481" stroke="#FF7481"/>
</svg>
