<svg width="80" height="16" fill="none" xmlns="http://www.w3.org/2000/svg"><path d="M8 1.886l1.323 3.87.116.34h4.566L10.622 8.43l-.311.215.122.358 1.306 3.82-3.455-2.386L8 10.242l-.284.196-3.454 2.386 1.305-3.82.123-.358-.312-.215-3.382-2.336h4.566l.115-.338L8 1.887zm16 0l1.323 3.87.116.34h4.566L26.622 8.43l-.311.215.122.358 1.306 3.82-3.455-2.386-.284-.196-.284.196-3.454 2.386 1.305-3.82.123-.358-.312-.215-3.382-2.336h4.566l.115-.338L24 1.887zm16 0l1.323 3.87.116.34h4.566L42.622 8.43l-.311.215.122.358 1.306 3.82-3.455-2.386-.284-.196-.284.196-3.455 2.386 1.306-3.82.123-.358-.312-.215-3.382-2.336h4.566l.115-.338L40 1.887zm16 0l1.323 3.87.116.34h4.566L58.622 8.43l-.311.215.122.358 1.306 3.82-3.455-2.386-.284-.196-.284.196-3.455 2.386 1.306-3.82.122-.358-.311-.215-3.383-2.336h4.566l.116-.338L56 1.887zm16 0l1.323 3.87.116.34h4.566L74.622 8.43l-.311.215.122.358 1.306 3.82-3.455-2.386-.284-.196-.284.196-3.455 2.386 1.306-3.82.122-.358-.311-.215-3.383-2.336h4.566l.116-.338L72 1.887z" fill="#fff" stroke="#FF7481"/></svg>