<svg width="13" height="10" fill="none" xmlns="http://www.w3.org/2000/svg"><path d="M7.03 1.439a13.14 13.14 0 00-2.31 1.544c-.717.597-1.216 1.17-1.496 1.716.67.133 1.154.416 1.455.848.3.41.456.856.466 1.335A2.152 2.152 0 014.49 8.52c-.45.425-.976.643-1.58.655a2.16 2.16 0 01-1.64-.657 2.3 2.3 0 01-.658-1.581c-.013-.646.14-1.295.46-1.947A7.992 7.992 0 012.41 3.152a10.416 10.416 0 011.875-1.536A12.55 12.55 0 016.417.45l.615.989zm5.78-.11c-.824.432-1.594.947-2.311 1.544-.717.597-1.216 1.169-1.496 1.716.67.133 1.155.416 1.455.847.3.412.456.857.466 1.336a2.152 2.152 0 01-.654 1.637c-.45.426-.976.644-1.58.656a2.16 2.16 0 01-1.64-.657 2.301 2.301 0 01-.657-1.581c-.014-.646.14-1.295.46-1.947a7.992 7.992 0 011.336-1.838 10.416 10.416 0 011.875-1.536c.699-.472 1.41-.86 2.132-1.166l.615.988z" fill="#4F4F4F"/></svg>