<svg width="142" height="40" fill="none" xmlns="http://www.w3.org/2000/svg"><g filter="url(#filter0_b)"><rect width="142" height="39.378" rx="5.227" fill="#D5E2FB" fill-opacity=".1"/></g><g clip-path="url(#clip0)"><path d="M37.05 9.067c.24 0 .473.041.697.124.233.075.436.187.61.337.183.141.328.32.436.536.108.207.162.444.162.71 0 .515-.166 1.1-.498 1.757a36.206 36.206 0 01-1.295 2.305 61.196 61.196 0 00-1.619 2.816 98.78 98.78 0 00-1.42 2.704c-.431.864-.83 1.683-1.195 2.455a93.96 93.96 0 00-.934 2.056c.332.042.664.075.996.1.332.025.631.033.897.025l.025.648h-.66a13.85 13.85 0 01-1.532-.15l-.598 1.396a6.718 6.718 0 00-.199.523l-1.482-.46.748-1.708a41.656 41.656 0 01-3.637-.997 29.48 29.48 0 01-1.892-.723 20.435 20.435 0 01-1.818-.872 27.873 27.873 0 01-1.756 1.844 15.227 15.227 0 01-2.03 1.62c-.722.474-1.49.856-2.304 1.147a7.274 7.274 0 01-2.552.448c-.797 0-1.595-.12-2.391-.361a7.123 7.123 0 01-2.13-1.022 5.664 5.664 0 01-1.519-1.657c-.39-.657-.585-1.4-.585-2.23 0-.657.124-1.234.373-1.733a3.49 3.49 0 01.996-1.246 4.494 4.494 0 011.507-.747 6.465 6.465 0 011.868-.262c.506 0 1.03.05 1.57.15a6.781 6.781 0 011.593.498c.515.232 1 .54 1.457.922.457.382.847.855 1.17 1.42l-.547.35a2.117 2.117 0 00-.15-.188 2.743 2.743 0 00-.386-.41 4.638 4.638 0 00-.647-.524 4.904 4.904 0 00-.96-.499 6.53 6.53 0 00-1.282-.386 7.546 7.546 0 00-1.644-.162c-.622 0-1.166.108-1.63.324a3.635 3.635 0 00-1.171.81c-.308.324-.54.69-.698 1.097-.15.407-.224.801-.224 1.183 0 .449.079.86.237 1.234.157.366.37.698.635.997.274.299.59.56.946.785a7.25 7.25 0 001.146.548 7.083 7.083 0 004.832.05 10.282 10.282 0 002.141-1.072 13.79 13.79 0 001.893-1.52 22.981 22.981 0 001.656-1.732 13.836 13.836 0 01-1.569-1.096 8.44 8.44 0 01-1.233-1.271 5.912 5.912 0 01-.822-1.458 4.798 4.798 0 01-.286-1.658c0-.482.087-.934.262-1.358.182-.424.427-.793.734-1.109a3.427 3.427 0 011.109-.76 3.378 3.378 0 011.382-.287c.548 0 1.067.088 1.556.262.49.166.955.399 1.395.698.44.29.851.64 1.233 1.047.39.407.755.847 1.096 1.32a68.034 68.034 0 012.777-2.928 35.338 35.338 0 012.677-2.417c.855-.69 1.66-1.234 2.416-1.633.764-.407 1.452-.61 2.067-.61zm-9.551 8.162c.39.598.747 1.217 1.07 1.856.324.64.615 1.267.872 1.882.266.614.498 1.2.698 1.757.207.548.386 1.034.535 1.458.971-2.119 2.01-4.195 3.113-6.23a64.648 64.648 0 013.724-6.032 5.19 5.19 0 00.473-.822c.1-.224.15-.415.15-.573a.651.651 0 00-.337-.598 1.418 1.418 0 00-.772-.212c-.922 0-2.18.631-3.773 1.894-1.586 1.254-3.503 3.127-5.753 5.62zm-8.02.212c0 .44.083.86.25 1.258.165.39.394.768.684 1.134.29.357.635.698 1.034 1.022.398.315.83.614 1.295.897.622-.756 1.258-1.516 1.905-2.28.648-.765 1.303-1.52 1.968-2.268a11.41 11.41 0 00-.91-1.06 6.215 6.215 0 00-.97-.86 4.486 4.486 0 00-1.06-.56 3.288 3.288 0 00-1.132-.2c-.44 0-.847.075-1.22.225-.374.15-.698.357-.972.623-.274.258-.49.565-.648.922a2.88 2.88 0 00-.224 1.146zm10.647 7.102a25.79 25.79 0 00-.473-1.358c-.191-.532-.42-1.1-.685-1.707a25.326 25.326 0 00-.884-1.882c-.324-.64-.68-1.25-1.071-1.831a186.74 186.74 0 00-1.78 2.043c-.615.715-1.254 1.475-1.918 2.28.58.324 1.187.62 1.818.885.64.258 1.258.49 1.855.698.606.2 1.179.374 1.719.523.548.15 1.02.266 1.42.349zm9.028 1.446a.886.886 0 01-.274.648.879.879 0 01-.647.261.892.892 0 01-.897-.91c0-.24.087-.448.262-.622a.872.872 0 01.635-.275.86.86 0 01.647.274.832.832 0 01.274.624zm15.553-8.835a19.383 19.383 0 01-1.32 1.994 11.403 11.403 0 01-1.656 1.806 8.331 8.331 0 01-2.017 1.309 5.823 5.823 0 01-2.416.498 6.078 6.078 0 01-2.005-.324 4.717 4.717 0 01-1.63-.984 4.666 4.666 0 01-1.084-1.583c-.258-.631-.386-1.358-.386-2.18 0-1.006.153-1.928.46-2.767a8.354 8.354 0 011.27-2.28 8.994 8.994 0 011.856-1.782 11.439 11.439 0 012.254-1.283 11.838 11.838 0 012.453-.773 11.606 11.606 0 012.466-.249 9.261 9.261 0 012.528.374c.83.24 1.565.61 2.204 1.109a5.43 5.43 0 011.556 1.869c.39.756.585 1.649.585 2.679 0 .714-.124 1.516-.373 2.405-.25.88-.68 1.857-1.295 2.928a238.906 238.906 0 01-1.856 3.19c-.523.872-.959 1.608-1.307 2.206-.34.59-.594 1.063-.76 1.42-.166.35-.249.627-.249.835 0 .2.087.357.262.473.182.117.436.175.76.175.44 0 .958-.116 1.556-.349.598-.233 1.258-.581 1.98-1.047a17.633 17.633 0 001.942-1.433c.64-.54 1.262-1.113 1.868-1.72a34.795 34.795 0 001.769-1.906 46.79 46.79 0 001.618-1.956 45.162 45.162 0 002.566-3.676 9.956 9.956 0 01-.362-1.47 8.603 8.603 0 01-.112-1.334c0-.506.046-.955.137-1.345a3.75 3.75 0 01.362-.997 1.85 1.85 0 01.547-.623 1.23 1.23 0 01.685-.212c.208 0 .386.05.536.15.157.09.286.211.386.36.1.15.174.32.224.512.05.19.075.382.075.573 0 .29-.05.644-.15 1.06-.1.415-.282.905-.548 1.47-.224.481-.54 1.063-.946 1.744a37.63 37.63 0 01-1.445 2.218 47.985 47.985 0 01-1.83 2.455 39.356 39.356 0 01-2.13 2.492 34.237 34.237 0 01-2.365 2.293 20.244 20.244 0 01-2.478 1.894c-.889.573-1.648.967-2.28 1.183-.63.216-1.161.324-1.593.324-.39 0-.718-.058-.984-.174a1.633 1.633 0 01-.622-.473 1.726 1.726 0 01-.337-.648 2.752 2.752 0 01-.1-.736c0-.299.046-.614.138-.947.09-.332.232-.656.423-.972.224-.373.506-.83.847-1.37.34-.54.701-1.13 1.083-1.77.39-.64.78-1.312 1.17-2.018.39-.715.74-1.425 1.047-2.131a15.86 15.86 0 00.76-2.094c.198-.68.298-1.312.298-1.894 0-.564-.129-1.113-.386-1.644a4.126 4.126 0 00-1.12-1.42c-.49-.416-1.096-.749-1.819-.998-.722-.257-1.556-.386-2.503-.386-.846 0-1.664.104-2.453.311-.78.2-1.515.482-2.204.848a9.428 9.428 0 00-1.893 1.32 8.728 8.728 0 00-1.457 1.683 7.754 7.754 0 00-.946 1.956c-.224.69-.336 1.4-.336 2.13 0 .699.108 1.318.324 1.858.224.531.522.976.896 1.333s.805.627 1.295.81c.49.183 1.005.274 1.544.274a4.91 4.91 0 001.756-.337 6.867 6.867 0 001.718-.971 10.315 10.315 0 001.62-1.533c.514-.607.991-1.284 1.431-2.031l.498.299zm14.047-1.782c.282-.473.51-.897.685-1.271.182-.374.324-.706.423-.997.1-.29.166-.544.2-.76a3.28 3.28 0 00.062-.586c0-.1-.009-.203-.025-.311a.917.917 0 00-.1-.312.53.53 0 00-.187-.236.495.495 0 00-.31-.088c-.15 0-.287.071-.412.212a1.71 1.71 0 00-.324.549c-.09.224-.162.49-.211.797-.05.299-.075.623-.075.972a7.936 7.936 0 00.274 2.031zm-.635 10.617a.886.886 0 01-.274.648.88.88 0 01-.648.261.892.892 0 01-.896-.91.85.85 0 01.261-.622.871.871 0 01.635-.275c.258 0 .474.092.648.274a.832.832 0 01.274.624zm10.053-2.954a1.368 1.368 0 01-.365-.139.986.986 0 01-.243-.21.81.81 0 01-.139-.244.82.82 0 01-.044-.26c0-.185.052-.327.155-.426a.525.525 0 01.387-.155c.104 0 .192.027.266.083a.599.599 0 01.183.21c.047.089.082.192.105.31.022.115.033.235.033.36 0 .085-.004.17-.011.255a2.04 2.04 0 01-.039.249 4.25 4.25 0 01-.393 1.085c-.17.322-.363.599-.58.831a2.538 2.538 0 01-.687.532 1.59 1.59 0 01-.714.183c-.159 0-.31-.023-.454-.067a.978.978 0 01-.376-.221 1.086 1.086 0 01-.255-.405 1.82 1.82 0 01-.094-.625c0-.307.059-.672.177-1.097.122-.425.327-.923.614-1.495.414-.802.829-1.52 1.246-2.155.177-.27.363-.533.559-.791.195-.259.39-.49.586-.693.2-.203.395-.365.587-.487.195-.126.38-.189.553-.189.022 0 .061.004.117.012a.482.482 0 01.332.204.43.43 0 01.072.266c0 .137-.037.31-.111.521a4.13 4.13 0 01-.321.692 8.58 8.58 0 01-1.245 1.667 10.03 10.03 0 01-1.976 1.623c-.13.28-.238.535-.327.764-.084.225-.153.43-.204.615-.052.18-.089.341-.111.482-.022.14-.033.262-.033.365 0 .144.018.264.055.36a.6.6 0 00.16.222.62.62 0 00.227.11 1.05 1.05 0 00.77-.1c.166-.088.323-.202.47-.343.148-.144.282-.304.404-.481.126-.178.234-.353.327-.526.092-.178.168-.344.227-.499.059-.159.096-.29.11-.393zm-1.843-1.08c.34-.233.652-.478.936-.737.287-.258.547-.517.78-.775a9.56 9.56 0 00.614-.764c.177-.251.325-.486.443-.704.118-.218.207-.411.266-.581a1.31 1.31 0 00.094-.421c0-.096-.035-.144-.105-.144-.133 0-.294.072-.482.216-.184.144-.4.378-.647.703-.244.325-.524.75-.842 1.274a34.125 34.125 0 00-1.057 1.933zm1.882.792a.9.9 0 00.005-.1 1.251 1.251 0 00-.072-.576c-.05-.122-.125-.183-.22-.183a.328.328 0 00-.078.011.218.218 0 00-.15.122.501.501 0 00.127.52.933.933 0 00.388.206zm5.191-.88a8.247 8.247 0 01-.204.376 41.77 41.77 0 00-.277.515c-.1.185-.201.378-.305.581-.1.204-.191.403-.276.599-.082.192-.15.374-.205.548a1.53 1.53 0 00-.078.432c0 .118.023.195.067.232.048.034.109.05.183.05a.66.66 0 00.326-.094c.115-.063.225-.144.332-.244.11-.1.218-.212.321-.337.103-.126.2-.252.288-.377a9.403 9.403 0 00.437-.665l.2.155a6.623 6.623 0 01-.504.798c-.1.137-.209.27-.327.399a2.744 2.744 0 01-.376.343c-.13.1-.266.18-.41.238a1.157 1.157 0 01-.442.089c-.222 0-.384-.067-.487-.2a.816.816 0 01-.156-.515v-.094a.757.757 0 01.017-.122 4.63 4.63 0 01-.531.576 2.66 2.66 0 01-.487.36c-.155.089-.306.15-.454.183a1.67 1.67 0 01-.415.055c-.14 0-.273-.023-.398-.072a.905.905 0 01-.322-.199.889.889 0 01-.221-.327 1.134 1.134 0 01-.083-.448c0-.21.048-.45.144-.72.092-.273.258-.567.498-.88a4.18 4.18 0 01.631-.682c.221-.185.437-.332.647-.443.215-.114.417-.196.61-.244.191-.048.363-.072.514-.072.34 0 .596.057.77.172.173.11.278.283.315.515.074-.092.151-.184.232-.277l.25-.282.176.077zm-1.699 2.104l.177-.294c.07-.122.144-.245.222-.37a17.15 17.15 0 01.42-.671c0-.033-.005-.087-.016-.16a.575.575 0 00-.072-.222.526.526 0 00-.194-.2.7.7 0 00-.37-.082 1.957 1.957 0 00-.842.232c-.159.081-.323.19-.493.327a3.69 3.69 0 00-.509.51 4.096 4.096 0 00-.592.924c-.136.307-.205.584-.205.83 0 .211.048.374.144.488a.504.504 0 00.41.172c.203 0 .393-.044.57-.133.177-.092.343-.21.498-.354.155-.144.303-.303.443-.477l.41-.52zm5.468-.936a1.37 1.37 0 01-.365-.139.983.983 0 01-.243-.21.813.813 0 01-.139-.244.825.825 0 01-.044-.26c0-.185.052-.327.155-.426a.526.526 0 01.387-.155.43.43 0 01.266.083.6.6 0 01.183.21c.048.089.083.192.105.31.022.115.033.235.033.36 0 .085-.004.17-.011.255-.008.081-.02.164-.039.249a4.24 4.24 0 01-.393 1.085c-.17.322-.363.599-.58.831a2.539 2.539 0 01-.687.532 1.591 1.591 0 01-.714.183c-.159 0-.31-.023-.454-.067a.98.98 0 01-.376-.221 1.087 1.087 0 01-.255-.405 1.82 1.82 0 01-.094-.625c0-.307.06-.672.177-1.097.122-.425.327-.923.614-1.495.414-.802.829-1.52 1.246-2.155.177-.27.363-.533.559-.791a7.66 7.66 0 01.586-.693c.2-.203.395-.365.587-.487.196-.126.38-.189.553-.189.023 0 .061.004.117.012a.481.481 0 01.332.204.43.43 0 01.072.266c0 .137-.037.31-.111.521-.07.207-.177.438-.321.692a8.61 8.61 0 01-1.245 1.667 10 10 0 01-1.976 1.623c-.13.28-.238.535-.327.764a7.5 7.5 0 00-.204.615c-.052.18-.089.341-.111.482-.022.14-.033.262-.033.365 0 .144.018.264.055.36a.6.6 0 00.16.222.621.621 0 00.228.11 1.05 1.05 0 00.769-.1c.166-.088.323-.202.47-.343.148-.144.282-.304.404-.481.126-.178.234-.353.327-.526.092-.178.168-.344.227-.499a1.99 1.99 0 00.11-.393zm-1.843-1.08a8.7 8.7 0 00.936-.737 9.467 9.467 0 001.395-1.54 6.97 6.97 0 00.442-.703c.118-.218.207-.411.266-.581.063-.174.094-.314.094-.421 0-.096-.035-.144-.105-.144-.133 0-.294.072-.482.216-.184.144-.4.378-.647.703-.244.325-.524.75-.842 1.274a33.999 33.999 0 00-1.057 1.933zm1.882.792a.9.9 0 00.006-.1 1.256 1.256 0 00-.072-.576c-.052-.122-.126-.183-.222-.183a.33.33 0 00-.077.011.219.219 0 00-.15.122.502.502 0 00.127.52.934.934 0 00.388.206zm3.243 1.567c-.144.159-.29.306-.437.443-.148.133-.293.25-.437.35a2.37 2.37 0 01-.426.237c-.137.055-.27.083-.399.083a.967.967 0 01-.393-.077.91.91 0 01-.299-.233 1.086 1.086 0 01-.188-.354 1.467 1.467 0 01-.066-.454c0-.222.046-.453.138-.693.092-.24.21-.472.354-.697a5.609 5.609 0 011.013-1.175l.238.167-.183.26a10.265 10.265 0 00-.52.858c-.088.17-.17.344-.243.52a4.266 4.266 0 00-.183.533 2.06 2.06 0 00-.066.498c0 .074.005.146.016.216a.636.636 0 00.067.177.366.366 0 00.127.122.4.4 0 00.2.044.924.924 0 00.42-.116c.155-.081.313-.19.476-.327.166-.14.334-.303.503-.487.174-.185.344-.382.51-.593a13.584 13.584 0 00.913-1.312l.354-.587c.118-.2.236-.393.354-.582l.26.133-.105.21-.254.532-.377.776c-.14.291-.29.603-.448.936-.159.328-.321.666-.487 1.013l-.476 1.014c.52-.288.99-.63 1.411-1.025a7.865 7.865 0 001.09-1.24l.205.154a6.66 6.66 0 01-1.195 1.363c-.476.413-1.05.81-1.721 1.19a32.537 32.537 0 01-.902 1.8 10.531 10.531 0 01-.88 1.396c-.292.388-.583.687-.875.897-.295.214-.594.321-.897.321a.675.675 0 01-.498-.199c-.132-.133-.199-.323-.199-.57 0-.207.046-.42.139-.637.092-.218.22-.438.381-.66.163-.217.357-.435.582-.653.221-.214.464-.42.73-.62.262-.2.537-.39.825-.57.291-.181.586-.348.885-.499.078-.162.16-.334.25-.515a65.145 65.145 0 01.503-.991c.081-.152.151-.277.21-.377zm-1.217 2.42c-.425.262-.82.541-1.185.836-.361.3-.675.593-.94.881a4.96 4.96 0 00-.631.82c-.152.255-.227.47-.227.648 0 .118.035.212.105.282.066.07.153.105.26.105a.83.83 0 00.448-.15 2.28 2.28 0 00.46-.398c.15-.17.302-.371.454-.604.15-.229.298-.476.442-.742.148-.262.29-.537.426-.825.137-.284.266-.568.388-.853zm8.777-5.532a.925.925 0 01-.072.11.99.99 0 00-.16.305.9.9 0 00-.028.238c0 .078.019.183.056.316.04.133.082.286.127.46.044.17.085.356.122.559.04.2.06.406.06.62 0 .314-.042.59-.127.83-.085.24-.197.446-.338.616.288-.155.57-.377.847-.665.277-.292.556-.66.836-1.108l.188.166a7.73 7.73 0 01-.542.781 4.88 4.88 0 01-.659.693c-.24.203-.498.367-.774.493-.277.129-.57.193-.88.193a1.18 1.18 0 01-.698-.199c-.192-.13-.31-.325-.354-.587l.2-.039c0 .022.01.06.032.111a.46.46 0 00.094.144.615.615 0 00.46.183.769.769 0 00.393-.1 1.1 1.1 0 00.299-.271c.084-.111.156-.237.216-.377.058-.144.105-.291.138-.443.037-.151.063-.299.077-.443a3.908 3.908 0 00.006-.786 12.271 12.271 0 00-.061-.754 3.505 3.505 0 01-.011-.194v-.01a1.87 1.87 0 00-.172.226l-.216.327-.226.36a23.4 23.4 0 01-.205.333l-.15.249a.946.946 0 00-.055.1l-.2-.156c.004-.003.05-.083.14-.238.088-.155.204-.35.348-.587.147-.24.313-.504.498-.792.184-.291.375-.574.57-.847l.221.183zm2.447-.222l.193-.327c.096-.155.207-.326.332-.515.129-.188.268-.376.415-.565a4.27 4.27 0 01.443-.487l.249.15a31.847 31.847 0 00-.979 1.744h1.804l-.111.288h-1.843a25.61 25.61 0 00-.47.992c-.144.328-.272.642-.382.941-.111.3-.198.58-.26.842a2.92 2.92 0 00-.094.675c0 .24.055.414.166.521.11.103.247.155.409.155a.902.902 0 00.443-.127c.151-.089.299-.2.443-.333.147-.133.286-.278.415-.437a7.29 7.29 0 00.349-.449 6.99 6.99 0 00.376-.565l.205.155c-.13.215-.275.442-.438.682-.162.24-.343.463-.542.67a2.971 2.971 0 01-.642.51 1.49 1.49 0 01-.753.199c-.166 0-.311-.03-.437-.089a.912.912 0 01-.31-.244 1.06 1.06 0 01-.188-.376 1.595 1.595 0 01-.066-.47c0-.112.018-.269.055-.472.033-.203.092-.443.177-.72.085-.28.198-.594.338-.941.144-.347.324-.72.542-1.119h-.919l.111-.288h.969zm6.298.886a8.837 8.837 0 01-.205.377 46.07 46.07 0 00-.581 1.096c-.1.204-.192.403-.277.599a6.753 6.753 0 00-.205.548c-.051.17-.077.314-.077.432s.022.195.066.232c.048.034.109.05.183.05a.656.656 0 00.326-.094c.115-.063.226-.144.333-.244.11-.1.217-.212.32-.337a7.89 7.89 0 00.537-.742l.189-.3.199.155a6.713 6.713 0 01-.504.798c-.099.137-.208.27-.326.399a2.75 2.75 0 01-.377.343c-.129.1-.265.18-.409.238a1.16 1.16 0 01-.443.089c-.221 0-.384-.067-.487-.2a.817.817 0 01-.155-.515v-.094a.71.71 0 01.017-.122 4.63 4.63 0 01-.532.576 2.643 2.643 0 01-.487.36c-.155.089-.306.15-.454.183a1.663 1.663 0 01-.415.055 1.1 1.1 0 01-.398-.072.9.9 0 01-.321-.199.89.89 0 01-.222-.327 1.138 1.138 0 01-.082-.448c0-.21.047-.45.143-.72.093-.273.259-.567.498-.88a3.788 3.788 0 011.279-1.124 2.68 2.68 0 01.609-.245c.192-.048.363-.072.514-.072.34 0 .596.057.77.172.173.11.278.283.315.515a7.06 7.06 0 01.233-.277l.249-.282.177.077zm-1.699 2.105l.177-.294a27.09 27.09 0 01.448-.742c.074-.118.139-.218.194-.299a1.24 1.24 0 00-.017-.16.566.566 0 00-.266-.421.697.697 0 00-.37-.083c-.115 0-.244.018-.388.055-.14.033-.291.092-.454.177-.158.081-.322.19-.492.327-.17.137-.339.306-.509.51a4.12 4.12 0 00-.593.924c-.136.307-.204.584-.204.83 0 .211.048.374.144.488a.504.504 0 00.409.172c.203 0 .393-.044.57-.133.177-.092.344-.21.498-.354.155-.144.303-.303.443-.477l.41-.52zm6.32-6.48a.53.53 0 01.321.094c.089.063.133.177.133.344 0 .114-.024.25-.072.41a4.119 4.119 0 01-.188.52 8.353 8.353 0 01-.626 1.196c-.121.203-.251.4-.387.593-.133.192-.266.37-.398.532a46.174 46.174 0 01-1.19 1.407c-.141.154-.259.282-.355.381a14.294 14.294 0 01-.459.444 3.076 3.076 0 00-.194.188 2 2 0 00-.044.404c.004.126.005.242.005.349 0 .321.052.56.156.714a.495.495 0 00.437.233.833.833 0 00.376-.094c.129-.067.256-.152.382-.255a3.6 3.6 0 00.365-.349 7.785 7.785 0 00.62-.792l.221-.327.205.155a4.099 4.099 0 00-.111.178 7.115 7.115 0 01-.592.83 4.3 4.3 0 01-.442.455c-.159.14-.327.256-.504.349-.173.092-.35.138-.531.138-.152 0-.297-.028-.438-.083a1.032 1.032 0 01-.365-.271 1.528 1.528 0 01-.254-.477 2.234 2.234 0 01-.094-.692c0-.336.038-.687.116-1.052.081-.37.19-.739.326-1.108.137-.373.297-.74.482-1.102.184-.362.38-.705.586-1.03.211-.329.428-.631.653-.908a7.37 7.37 0 01.67-.726 3.54 3.54 0 01.637-.476c.202-.115.387-.172.553-.172zm-3.315 5.616c.314-.325.616-.654.908-.986a22.722 22.722 0 001.533-1.944c.214-.31.396-.602.548-.875a5.81 5.81 0 00.354-.747 1.7 1.7 0 00.127-.582.247.247 0 00-.044-.116c-.03-.052-.065-.078-.105-.078-.115 0-.266.076-.454.227a4.695 4.695 0 00-.615.62 11.297 11.297 0 00-1.339 2.022c-.207.395-.391.803-.553 1.224a7.1 7.1 0 00-.36 1.235zm2.839 1.18a2.011 2.011 0 00-.017.132 1.306 1.306 0 00.05.515c.041.118.098.224.172.316a.836.836 0 00.282.21.934.934 0 00.387.078c.484 0 .951-.164 1.401-.493.45-.329.898-.849 1.345-1.562l.188.166c-.244.407-.491.75-.742 1.03a4.473 4.473 0 01-.752.676c-.248.174-.491.3-.731.377-.24.077-.469.116-.686.116-.159 0-.327-.022-.504-.066a1.532 1.532 0 01-.493-.222 1.221 1.221 0 01-.365-.415 1.292 1.292 0 01-.149-.648c0-.277.048-.543.144-.797.092-.26.214-.499.365-.72.151-.222.325-.423.52-.604a4.22 4.22 0 01.592-.47c.203-.13.401-.23.592-.3a1.44 1.44 0 01.51-.11c.096 0 .193.014.293.044.1.03.188.075.266.138a.659.659 0 01.193.25.817.817 0 01.078.37c0 .196-.046.38-.138.554-.089.17-.209.329-.36.476a2.958 2.958 0 01-.526.394 4.243 4.243 0 01-.625.293 4.83 4.83 0 01-.659.194 3.283 3.283 0 01-.631.077zm.044-.239a3.13 3.13 0 001.295-.437 3.12 3.12 0 00.842-.776c.096-.136.169-.267.221-.393a.897.897 0 00.078-.337c0-.1-.028-.18-.084-.239a.24.24 0 00-.188-.088c-.162 0-.345.059-.548.177a2.756 2.756 0 00-.608.482 4.263 4.263 0 00-1.008 1.611z" fill="#fff"/><path d="M128.137 31.854h-3.423s1.635-3.467 1.826-4.564c.19-1.097.57-3.354.57-3.609 0-.318.342-3.078.342-3.078s-.05-1.824-.684-2.76c-.661-.974-2.51-1.804-2.51-1.804-.365-.425-2.282-.672-3.081-.637-.799.036-1.94-.106-1.94-.106l2.51-.212-1.597-.85s-1.122-.376-1.483-.742l.114-.425.456.637s.978.369 1.484.106c.358-.186.684-.743.684-.743s.286-.499.342-.85c.04-.245-.148-.429 0-.636.223-.31.641-.098 1.027 0 .289.073.685.318.685.318l-.685.319.343.424s.289.224.342.425c.08.307-.342.743-.342.743s-.858.336-.799.743c.038.263.456.53.456.53l.913.213 1.598.318c.623.125.67-.194.798-.53.074-.196 0-.531 0-.531 0-.663-.003-1.15.114-1.804.114-.637.104-.83.343-1.274l.456-.85s.427-.831.913-.954c.258-.066.228 0 .228 0s-.57.424-.685.849c-.114.424-.471 1.709-.456 2.547.013.756-.205 1.861.685 2.866.362.41.753.785 1.027.955.273.17.988.248 1.597.53.608.284 1.97-.678 2.51-1.06.427-.303.516-.532.799-.956.349-.523.342-1.592.342-1.592l.114-.318c-.005.13 0 .53 0 1.273 0 .743-1.483 2.441-1.483 2.441s-1.127.745-1.94 1.486c-.407.372-.913 1.062-.913 1.062s-.721 1.26-1.026 2.123c-.562 1.587-.801 2.375-1.027 4.033-.176 1.285-.061 2.208 0 3.503.045.966.456 2.44.456 2.44z" fill="#FF7481"/><path d="M127.174 23.447c6.211 0 11.246-4.684 11.246-10.462s-5.035-10.463-11.246-10.463-11.246 4.685-11.246 10.463 5.035 10.462 11.246 10.462z" fill="url(#paint0_radial)" fill-opacity=".5"/><g filter="url(#filter1_d)"><path d="M133.98 34.242H7.35" stroke="#fff" stroke-opacity=".8" stroke-width=".5"/></g></g><defs><filter id="filter0_b" x="-9.146" y="-9.146" width="160.293" height="57.671" filterUnits="userSpaceOnUse" color-interpolation-filters="sRGB"><feFlood flood-opacity="0" result="BackgroundImageFix"/><feGaussianBlur in="BackgroundImage" stdDeviation="4.573"/><feComposite in2="SourceAlpha" operator="in" result="effect1_backgroundBlur"/><feBlend in="SourceGraphic" in2="effect1_backgroundBlur" result="shape"/></filter><filter id="filter1_d" x="3.35" y="33.992" width="134.63" height="8.5" filterUnits="userSpaceOnUse" color-interpolation-filters="sRGB"><feFlood flood-opacity="0" result="BackgroundImageFix"/><feColorMatrix in="SourceAlpha" values="0 0 0 0 0 0 0 0 0 0 0 0 0 0 0 0 0 0 127 0"/><feOffset dy="4"/><feGaussianBlur stdDeviation="2"/><feColorMatrix values="0 0 0 0 0 0 0 0 0 0 0 0 0 0 0 0 0 0 0.25 0"/><feBlend in2="BackgroundImageFix" result="effect1_dropShadow"/><feBlend in="SourceGraphic" in2="effect1_dropShadow" result="shape"/></filter><radialGradient id="paint0_radial" cx="0" cy="0" r="1" gradientUnits="userSpaceOnUse" gradientTransform="matrix(0 10.4624 -11.246 0 127.174 12.985)"><stop offset=".297" stop-color="#fff"/><stop offset="1" stop-color="#FF7481"/></radialGradient><clipPath id="clip0"><path fill="#fff" transform="translate(4.177 2.387)" d="M0 0h134.244v35.798H0z"/></clipPath></defs></svg>