<svg width="17" height="22" fill="none" xmlns="http://www.w3.org/2000/svg"><path d="M8.859 19.42l-4.25-8.502.235-.236L7.42 8.341a.057.057 0 01.022-.02l-.022.02c-.31.47 3.328 7.065 3.328 7.065h3.307s1.654.872 1.889 1.889c.329 1.42-.836 2.39-2.126 3.07-1.743.92-4.959-.945-4.959-.945z" fill="#FF7481" stroke="#FF7481"/><path d="M3.056 7.356l1.552 3.562 5.446 4.085c.093.129.17.19.222.166l-.222-.166c-.761-1.053-2.679-6.594-2.679-6.594l2.11-2.592s.379-1.848-.26-2.674c-.891-1.155-2.386-.853-3.737-.271-1.826.786-2.432 4.484-2.432 4.484z" fill="#FF7481" stroke="#FF7481"/></svg>