<svg width="38" height="50" fill="none" xmlns="http://www.w3.org/2000/svg"><path d="M20.463 49.161h-5.738s2.742-5.81 3.06-7.65c.32-1.838.956-5.62.956-6.048 0-.533.574-5.159.574-5.159s-.084-3.057-1.147-4.625c-1.108-1.634-4.207-3.024-4.207-3.024-.613-.712-3.825-1.127-5.164-1.068-1.339.06-3.251-.178-3.251-.178l4.207-.355-2.677-1.423S5.196 19 4.59 18.385l.191-.711.765 1.067s1.638.618 2.486.178c.601-.312 1.148-1.245 1.148-1.245s.48-.837.573-1.424c.066-.412-.248-.72 0-1.067.373-.52 1.073-.165 1.721 0 .484.123 1.148.534 1.148.534l-1.148.533.574.712s.486.374.574.712c.134.514-.574 1.245-.574 1.245s-1.438.564-1.339 1.245c.065.441.765.89.765.89l1.53.355 2.678.534c1.045.209 1.124-.326 1.338-.89.125-.327 0-.889 0-.889 0-1.111-.005-1.928.192-3.024.19-1.067.173-1.39.573-2.135l.765-1.423s.715-1.394 1.53-1.601c.432-.11.383 0 .383 0s-.957.712-1.148 1.423c-.191.712-.79 2.865-.765 4.27.023 1.267-.343 3.119 1.148 4.803.607.687 1.262 1.316 1.72 1.6.46.285 1.658.416 2.678.89 1.02.475 3.302-1.138 4.207-1.779.716-.506.865-.89 1.339-1.6.585-.878.574-2.67.574-2.67l.191-.533c-.01.22 0 .89 0 2.135 0 1.245-2.486 4.092-2.486 4.092s-1.889 1.247-3.251 2.49c-.683.623-1.53 1.78-1.53 1.78s-1.21 2.11-1.721 3.557c-.941 2.66-1.341 3.982-1.721 6.76-.295 2.154-.103 3.701 0 5.87.076 1.621.765 4.092.765 4.092z" fill="#FF7481" fill-opacity=".1"/><path d="M18.849 35.071c10.41 0 18.849-7.85 18.849-17.535S29.258 0 18.848 0C8.44 0 0 7.85 0 17.535s8.439 17.536 18.849 17.536z" fill="url(#paint0_radial)" fill-opacity=".1"/><defs><radialGradient id="paint0_radial" cx="0" cy="0" r="1" gradientUnits="userSpaceOnUse" gradientTransform="scale(18.8489 17.5355) rotate(90 0 1)"><stop offset=".297" stop-color="#fff"/><stop offset="1" stop-color="#FF7481"/></radialGradient></defs></svg>