<svg width="238" height="66" fill="none" xmlns="http://www.w3.org/2000/svg"><g filter="url(#filter0_b)"><rect width="238" height="66" rx="5.84" fill="#D5E2FB" fill-opacity=".1"/></g><path d="M62.097 15.197c.404 0 .794.07 1.17.208.389.126.73.314 1.022.564.306.237.55.536.73.898.181.348.272.745.272 1.19 0 .864-.278 1.846-.835 2.946-.556 1.1-1.28 2.387-2.17 3.863a102.539 102.539 0 00-2.714 4.72c-.849 1.56-1.642 3.07-2.38 4.532a209.992 209.992 0 00-2.003 4.115c-.598 1.28-1.12 2.43-1.565 3.446.556.07 1.113.125 1.67.167.556.042 1.057.056 1.502.042l.042 1.086h-1.106c-.627-.014-1.482-.098-2.568-.251a596.327 596.327 0 00-1.001 2.339c-.223.557-.334.85-.334.877l-2.484-.773 1.252-2.86a69.659 69.659 0 01-2.942-.732 65.888 65.888 0 01-3.152-.94 49.29 49.29 0 01-3.172-1.21 34.165 34.165 0 01-3.047-1.463 46.678 46.678 0 01-2.943 3.091 25.522 25.522 0 01-3.402 2.715 18.18 18.18 0 01-3.861 1.922c-1.35.5-2.776.751-4.279.751-1.336 0-2.671-.201-4.007-.605a11.935 11.935 0 01-3.57-1.713 9.493 9.493 0 01-2.546-2.777c-.653-1.1-.98-2.347-.98-3.739 0-1.1.208-2.067.626-2.903a5.848 5.848 0 011.67-2.088c.723-.557 1.565-.975 2.525-1.254a10.837 10.837 0 013.13-.438c.85 0 1.726.083 2.63.25.918.168 1.81.446 2.672.836.862.39 1.676.905 2.442 1.545.765.64 1.419 1.434 1.962 2.381l-.919.585a3.524 3.524 0 00-.25-.313 4.594 4.594 0 00-.647-.69 7.756 7.756 0 00-1.086-.877 8.219 8.219 0 00-1.607-.835 10.946 10.946 0 00-2.15-.647c-.806-.181-1.725-.272-2.754-.272-1.044 0-1.955.181-2.735.543-.779.348-1.433.8-1.961 1.357a5.583 5.583 0 00-1.17 1.838 5.741 5.741 0 00-.375 1.985c0 .751.132 1.44.397 2.067.264.613.619 1.17 1.064 1.671.46.501.988.94 1.586 1.316.613.362 1.253.668 1.92.919.682.25 1.371.438 2.067.563a11.876 11.876 0 006.032-.48 17.304 17.304 0 003.59-1.796 23.108 23.108 0 003.172-2.548 38.534 38.534 0 002.776-2.903 23.19 23.19 0 01-2.63-1.838 14.15 14.15 0 01-2.066-2.13 9.91 9.91 0 01-1.378-2.444 8.04 8.04 0 01-.48-2.777c0-.808.146-1.567.438-2.277.306-.71.717-1.33 1.232-1.859a5.74 5.74 0 011.857-1.273 5.659 5.659 0 012.317-.48c.918 0 1.788.145 2.609.438.82.278 1.6.668 2.337 1.17a11.597 11.597 0 012.067 1.754 20.36 20.36 0 011.836 2.213c1.559-1.74 3.11-3.376 4.655-4.907a59.165 59.165 0 014.487-4.052c1.433-1.156 2.783-2.068 4.049-2.736 1.28-.682 2.435-1.023 3.464-1.023zM46.09 28.877a32.847 32.847 0 011.795 3.111 48.247 48.247 0 011.461 3.154c.445 1.03.835 2.011 1.17 2.944.347.92.646 1.734.896 2.444a174.032 174.032 0 015.218-10.443c1.85-3.41 3.931-6.78 6.24-10.108.376-.557.64-1.016.794-1.378.167-.376.25-.696.25-.96 0-.446-.187-.78-.563-1.003a2.376 2.376 0 00-1.294-.355c-1.545 0-3.653 1.058-6.324 3.174-2.658 2.102-5.872 5.242-9.642 9.42zm-13.44.354c0 .738.139 1.441.417 2.11.278.654.66 1.288 1.148 1.9a11.86 11.86 0 001.732 1.713c.668.529 1.391 1.03 2.17 1.503a362.323 362.323 0 013.194-3.822 214.467 214.467 0 013.297-3.8 19.126 19.126 0 00-1.523-1.776 10.416 10.416 0 00-1.628-1.44 7.523 7.523 0 00-1.774-.94 5.516 5.516 0 00-1.9-.335c-.737 0-1.419.125-2.045.376a4.952 4.952 0 00-1.628 1.044c-.459.432-.82.947-1.085 1.546a4.83 4.83 0 00-.376 1.921zm17.844 11.904a43.264 43.264 0 00-.793-2.276A45.556 45.556 0 0048.552 36a42.325 42.325 0 00-1.482-3.155 29.052 29.052 0 00-1.795-3.07 330.737 330.737 0 00-2.984 3.425 238.853 238.853 0 00-3.214 3.822c.974.543 1.99 1.038 3.047 1.483 1.071.432 2.108.822 3.11 1.17a63.74 63.74 0 002.88.877c.918.25 1.711.445 2.379.584zm15.132 2.423c0 .418-.153.78-.46 1.086a1.473 1.473 0 01-1.085.439 1.494 1.494 0 01-1.503-1.525c0-.404.147-.752.439-1.044.306-.306.66-.46 1.064-.46.432 0 .793.154 1.085.46.307.292.46.64.46 1.044zm26.068-14.807a32.954 32.954 0 01-2.213 3.341 19.118 19.118 0 01-2.775 3.029 13.964 13.964 0 01-3.382 2.193c-1.238.556-2.588.835-4.049.835-1.196 0-2.316-.181-3.36-.543a7.904 7.904 0 01-2.734-1.65c-.765-.724-1.37-1.608-1.816-2.652-.431-1.058-.647-2.277-.647-3.655 0-1.685.258-3.23.773-4.637a13.998 13.998 0 012.129-3.821 15.07 15.07 0 013.11-2.987 19.166 19.166 0 013.777-2.151 19.846 19.846 0 014.111-1.295 19.455 19.455 0 014.133-.418c1.447.014 2.86.223 4.237.627 1.391.404 2.623 1.023 3.694 1.859 1.085.821 1.955 1.865 2.609 3.132.654 1.267.981 2.764.981 4.49 0 1.198-.209 2.542-.626 4.031-.418 1.476-1.141 3.112-2.17 4.908a400.567 400.567 0 01-3.11 5.347 353.128 353.128 0 00-2.192 3.697c-.57.988-.995 1.782-1.273 2.38-.279.585-.418 1.051-.418 1.4 0 .334.146.598.439.793.306.195.73.293 1.273.293.737 0 1.607-.195 2.609-.585 1.001-.39 2.107-.975 3.318-1.754a29.568 29.568 0 003.256-2.402 50.752 50.752 0 003.131-2.882 58.568 58.568 0 002.963-3.196c.96-1.1 1.865-2.193 2.714-3.279a79.089 79.089 0 002.358-3.216 69.505 69.505 0 001.941-2.945 16.684 16.684 0 01-.605-2.464 14.406 14.406 0 01-.188-2.235c0-.85.077-1.601.229-2.255.154-.669.355-1.226.606-1.671.264-.46.57-.808.918-1.044a2.064 2.064 0 011.148-.355c.348 0 .647.083.898.25.264.153.48.355.646.606.168.25.293.536.376.856.084.32.125.64.125.96 0 .488-.083 1.08-.25 1.776-.167.696-.473 1.518-.918 2.465-.376.807-.905 1.782-1.587 2.923a62.485 62.485 0 01-2.421 3.718 80.308 80.308 0 01-3.068 4.114 65.971 65.971 0 01-3.569 4.177 57.36 57.36 0 01-3.965 3.843 33.957 33.957 0 01-4.154 3.174c-1.488.961-2.761 1.623-3.819 1.985-1.057.362-1.948.543-2.671.543-.654 0-1.204-.098-1.65-.293a2.74 2.74 0 01-1.043-.793 2.895 2.895 0 01-.564-1.086 4.618 4.618 0 01-.166-1.233c0-.5.076-1.03.23-1.587.152-.557.389-1.1.709-1.629.376-.626.849-1.392 1.42-2.297.57-.905 1.175-1.894 1.815-2.966a91.274 91.274 0 001.962-3.383 44.411 44.411 0 001.753-3.572 26.24 26.24 0 001.273-3.508c.334-1.142.501-2.2.501-3.175 0-.947-.216-1.866-.647-2.757-.417-.89-1.044-1.684-1.878-2.38-.821-.697-1.837-1.254-3.048-1.671-1.21-.432-2.609-.648-4.195-.648-1.419 0-2.79.174-4.111.522a16.65 16.65 0 00-3.695 1.42 15.798 15.798 0 00-3.172 2.214 14.62 14.62 0 00-2.442 2.82 12.986 12.986 0 00-1.586 3.279 11.477 11.477 0 00-.564 3.571c0 1.17.181 2.207.543 3.112.376.891.877 1.636 1.503 2.235a6.288 6.288 0 002.17 1.357c.821.306 1.684.46 2.588.46.974 0 1.955-.188 2.943-.564a11.504 11.504 0 002.88-1.63 17.283 17.283 0 002.714-2.568 24.285 24.285 0 002.4-3.404l.835.5zm23.542-2.987a23.85 23.85 0 001.148-2.13c.306-.627.543-1.183.71-1.67.167-.488.278-.913.334-1.275.069-.376.104-.703.104-.981 0-.167-.014-.341-.041-.522a1.528 1.528 0 00-.168-.523.88.88 0 00-.313-.396c-.125-.098-.299-.146-.521-.146-.251 0-.48.118-.689.355-.209.222-.39.529-.543.918a6.165 6.165 0 00-.354 1.337 9.87 9.87 0 00-.126 1.63 13.25 13.25 0 00.459 3.403zm-1.064 17.794c0 .418-.153.78-.459 1.086a1.473 1.473 0 01-1.085.439c-.404 0-.759-.146-1.065-.439a1.521 1.521 0 01-.438-1.086c0-.404.146-.752.438-1.044.306-.306.661-.46 1.065-.46.431 0 .793.154 1.085.46.306.292.459.64.459 1.044z" fill="#fff"/><path d="M214.765 53.39h-5.737s2.741-5.812 3.059-7.65c.319-1.839.956-5.622.956-6.05 0-.533.574-5.158.574-5.158s-.084-3.057-1.147-4.625c-1.108-1.634-4.207-3.025-4.207-3.025-.612-.711-3.825-1.126-5.164-1.067-1.339.06-3.251-.178-3.251-.178l4.207-.356-2.677-1.423s-1.881-.63-2.486-1.245l.191-.712.765 1.067s1.638.619 2.486.178c.601-.312 1.148-1.245 1.148-1.245s.479-.836.573-1.423c.066-.412-.248-.72 0-1.067.373-.52 1.073-.165 1.721 0 .484.122 1.148.533 1.148.533l-1.148.534.574.711s.486.375.574.712c.134.514-.574 1.245-.574 1.245s-1.437.564-1.339 1.246c.064.44.765.89.765.89l1.53.355 2.678.534c1.045.208 1.124-.326 1.338-.89.125-.327 0-.89 0-.89 0-1.11-.005-1.927.192-3.024.191-1.067.173-1.389.573-2.134l.765-1.424s.715-1.394 1.53-1.6c.432-.11.383 0 .383 0s-.957.711-1.148 1.423c-.191.711-.789 2.864-.765 4.27.023 1.267-.343 3.118 1.148 4.802.607.687 1.262 1.317 1.721 1.601.459.285 1.657.416 2.677.89 1.02.474 3.302-1.138 4.207-1.779.716-.507.865-.89 1.339-1.601.585-.878.574-2.669.574-2.669l.191-.533c-.01.22 0 .89 0 2.134 0 1.246-2.486 4.092-2.486 4.092s-1.889 1.248-3.251 2.49c-.683.624-1.53 1.78-1.53 1.78s-1.209 2.11-1.721 3.558c-.941 2.66-1.341 3.982-1.721 6.76-.295 2.154-.103 3.701 0 5.87.076 1.62.765 4.092.765 4.092z" fill="#FF7481"/><path d="M213.151 39.299c10.41 0 18.849-7.851 18.849-17.536 0-9.685-8.439-17.535-18.849-17.535s-18.849 7.85-18.849 17.535S202.741 39.3 213.151 39.3z" fill="url(#paint0_radial)" fill-opacity=".5"/><path d="M219.53 57.914L7.294 56.87" stroke="#fff" stroke-opacity=".8" stroke-width="3"/><path d="M132.888 47.205c-1.091 0-2.012-.205-2.763-.614-.75-.432-1.307-.978-1.671-1.637a4.447 4.447 0 01-.545-2.115c0-.75.182-1.398.545-1.944.341-.568.762-.978 1.262-1.228a44.18 44.18 0 002.319-4.809 70.5 70.5 0 001.876-5.286l5.048-.682c.113 2.91.307 6.06.58 9.447.113 1.364.17 2.353.17 2.967 0 .523-.045.955-.136 1.296 1.068-.614 1.887-1.182 2.455-1.705h1.433c-1.456 1.683-3.195 3.104-5.218 4.263-.66.705-1.478 1.228-2.456 1.57a9.113 9.113 0 01-2.899.477zm-1.091-2.695c.841 0 1.546-.25 2.114-.75.569-.5.853-1.307.853-2.421 0-.683-.068-1.637-.205-2.865a606.137 606.137 0 01-.443-5.218c-.546 1.796-1.467 3.944-2.763 6.446.523.272.785.67.785 1.193 0 .432-.148.819-.444 1.16a1.292 1.292 0 01-1.057.511c-.477 0-.784-.148-.921-.443 0 .819.159 1.421.478 1.808.341.386.875.58 1.603.58zm13.602 2.695c-1.091 0-1.978-.341-2.66-1.023-.66-.683-.989-1.706-.989-3.07 0-.568.091-1.307.273-2.217l2.046-9.583h-1.126l.273-1.365h1.126l1.023-4.706 5.048-.682-1.16 5.388h2.046l-.273 1.365h-2.046l-2.183 10.231a4.218 4.218 0 00-.136 1.092c0 .454.102.784.307.989.227.181.591.272 1.091.272.66 0 1.274-.272 1.842-.818.568-.569.978-1.296 1.228-2.183h1.432c-.841 2.456-1.921 4.127-3.24 5.014-1.319.864-2.626 1.296-3.922 1.296zm11.037 8.321c-1.092 0-2.001-.284-2.729-.852-.727-.569-1.091-1.387-1.091-2.456 0-1.296.523-2.342 1.569-3.138 1.045-.773 2.376-1.42 3.99-1.944l.409-1.841c-.659.727-1.33 1.227-2.012 1.5a5.56 5.56 0 01-2.08.41c-1.092 0-1.979-.341-2.661-1.023-.659-.683-.989-1.706-.989-3.07 0-.568.091-1.307.273-2.217l2.319-10.948h4.911l-2.455 11.596a3.512 3.512 0 00-.102.853c0 1 .341 1.5 1.023 1.5.591 0 1.114-.25 1.569-.75.454-.523.818-1.205 1.091-2.046l2.387-11.153h4.911l-3.376 15.825c1.091-.364 1.967-.91 2.626-1.637.66-.727 1.217-1.807 1.671-3.24h1.433c-.614 2.024-1.444 3.513-2.49 4.468a8.443 8.443 0 01-3.547 1.91l-.511 2.455c-.455 2.206-1.24 3.718-2.354 4.536a6.12 6.12 0 01-3.785 1.262zm-.785-2.66c.387 0 .762-.261 1.126-.784.363-.523.648-1.274.852-2.251l.205-.99c-2.228.82-3.342 1.785-3.342 2.9 0 .295.102.557.306.784.205.227.489.341.853.341zm15.427-5.661c-1.091 0-1.978-.341-2.66-1.023-.66-.683-.989-1.706-.989-3.07 0-.568.091-1.307.272-2.217l3.65-17.087 5.047-.682-3.922 18.417a4.218 4.218 0 00-.136 1.092c0 .454.102.784.307.989.227.181.591.272 1.091.272.659 0 1.273-.272 1.842-.818.568-.569.977-1.296 1.228-2.183h1.432c-.841 2.456-1.921 4.127-3.24 5.014-1.319.864-2.626 1.296-3.922 1.296zm10.525 0c-1.66 0-2.956-.432-3.888-1.296-.932-.887-1.398-2.263-1.398-4.127 0-1.569.306-3.297.92-5.184a11.9 11.9 0 013.002-4.877c1.387-1.387 3.149-2.08 5.286-2.08 2.501 0 3.752 1.09 3.752 3.273a6.11 6.11 0 01-1.092 3.513c-.727 1.069-1.694 1.933-2.899 2.592a9.512 9.512 0 01-3.854 1.092c-.045.5-.068.841-.068 1.023 0 1.887.705 2.83 2.115 2.83.636 0 1.318-.17 2.046-.51a8.249 8.249 0 001.978-1.297c-.614 3.365-2.581 5.048-5.9 5.048zm.068-8.731c.864-.023 1.671-.307 2.422-.853a6.008 6.008 0 001.841-2.08 5.492 5.492 0 00.716-2.695c0-.932-.284-1.398-.852-1.398-.796 0-1.592.728-2.388 2.183-.773 1.432-1.352 3.047-1.739 4.843z" fill="#fff"/><defs><radialGradient id="paint0_radial" cx="0" cy="0" r="1" gradientUnits="userSpaceOnUse" gradientTransform="matrix(0 17.5355 -18.8489 0 213.151 21.763)"><stop offset=".297" stop-color="#fff"/><stop offset="1" stop-color="#FF7481"/></radialGradient><filter id="filter0_b" x="-10.22" y="-10.22" width="258.44" height="86.44" filterUnits="userSpaceOnUse" color-interpolation-filters="sRGB"><feFlood flood-opacity="0" result="BackgroundImageFix"/><feGaussianBlur in="BackgroundImage" stdDeviation="5.11"/><feComposite in2="SourceAlpha" operator="in" result="effect1_backgroundBlur"/><feBlend in="SourceGraphic" in2="effect1_backgroundBlur" result="shape"/></filter></defs></svg>