<svg width="238" height="66" viewBox="0 0 238 66" fill="none" xmlns="http://www.w3.org/2000/svg">
<g filter="url(#filter0_b)">
<rect width="238" height="66" rx="5.84" fill="#D5E2FB" fill-opacity="0.1"/>
</g>
<path d="M62.0975 15.1966C62.5011 15.1966 62.8906 15.2662 63.2664 15.4054C63.6558 15.5307 63.9969 15.7187 64.289 15.9693C64.595 16.206 64.8387 16.5054 65.0195 16.8674C65.2003 17.2155 65.2908 17.6123 65.2908 18.0578C65.2908 18.921 65.0127 19.9026 64.4558 21.0026C63.8995 22.1025 63.1759 23.3904 62.2854 24.8663C61.3254 26.4396 60.4209 28.0129 59.572 29.5863C58.7233 31.1457 57.9302 32.6563 57.1929 34.1182C56.4692 35.5662 55.8013 36.9379 55.1892 38.2326C54.5908 39.5134 54.069 40.6623 53.6237 41.6788C54.1803 41.7483 54.7369 41.8038 55.2934 41.8457C55.85 41.8876 56.351 41.9015 56.7963 41.8876L56.8379 42.9735C56.7405 42.9735 56.3718 42.9735 55.7319 42.9735C55.1055 42.9596 54.2501 42.8761 53.1645 42.7228C52.7332 43.7253 52.3993 44.505 52.1627 45.0619C51.9401 45.6189 51.8288 45.9114 51.8288 45.9391L49.3452 45.1665L50.5975 42.3052C49.6652 42.0964 48.6844 41.8525 47.6547 41.5742C46.625 41.2956 45.5745 40.9825 44.5032 40.6344C43.4456 40.2723 42.3883 39.8687 41.3307 39.4231C40.2733 38.9776 39.2576 38.4902 38.2837 37.9611C37.3792 39.0055 36.3982 40.0356 35.3407 41.052C34.2833 42.0545 33.1493 42.9596 31.9387 43.7672C30.7282 44.5608 29.4412 45.2012 28.0776 45.6887C26.7279 46.1898 25.3017 46.4404 23.799 46.4404C22.4633 46.4404 21.1275 46.2385 19.7918 45.8348C18.4699 45.4448 17.2802 44.8739 16.2228 44.1221C15.1792 43.3564 14.3305 42.4305 13.6765 41.3446C13.0225 40.2444 12.6956 38.9984 12.6956 37.6062C12.6956 36.506 12.9043 35.5386 13.3217 34.703C13.7252 33.8678 14.2817 33.1715 14.9914 32.6146C15.7149 32.0576 16.5567 31.64 17.5168 31.3615C18.4908 31.0691 19.5343 30.9229 20.6475 30.9229C21.4962 30.9229 22.3728 31.0064 23.2772 31.1735C24.1955 31.3406 25.0861 31.6191 25.9487 32.0089C26.8114 32.3988 27.6254 32.9139 28.3906 33.5544C29.1559 34.1948 29.8099 34.9885 30.3525 35.9354L29.4342 36.52C29.4203 36.4923 29.3368 36.3878 29.1838 36.2069C29.0446 36.0117 28.8289 35.7821 28.5367 35.5175C28.2585 35.2392 27.8967 34.9466 27.4514 34.6404C27.0062 34.3341 26.4705 34.0555 25.8444 33.8051C25.2322 33.5405 24.5156 33.3247 23.6946 33.1576C22.8876 32.9766 21.9693 32.8861 20.9396 32.8861C19.8961 32.8861 18.9847 33.0671 18.2055 33.4291C17.4263 33.7772 16.7724 34.2296 16.2436 34.7865C15.7288 35.3298 15.3392 35.9422 15.0749 36.6245C14.8244 37.3068 14.6992 37.968 14.6992 38.6087C14.6992 39.3604 14.8314 40.0496 15.0957 40.6763C15.3601 41.2888 15.7149 41.8457 16.1602 42.3471C16.6193 42.8482 17.1481 43.2869 17.7464 43.6626C18.3586 44.0247 18.9986 44.3309 19.6665 44.5816C20.3483 44.8323 21.0371 45.0203 21.7328 45.1454C22.4424 45.2707 23.1311 45.3334 23.799 45.3334C25.1765 45.3334 26.4983 45.1106 27.7645 44.6651C29.0307 44.2056 30.2273 43.6071 31.3543 42.869C32.4814 42.1172 33.5388 41.268 34.5268 40.321C35.5286 39.3744 36.4539 38.4067 37.3026 37.4182C36.3564 36.8473 35.4799 36.2345 34.6729 35.5802C33.8798 34.9118 33.191 34.2019 32.6066 33.45C32.0222 32.6842 31.5631 31.8697 31.2291 31.0064C30.9091 30.1293 30.7491 29.2034 30.7491 28.2288C30.7491 27.4212 30.8952 26.6624 31.1874 25.9523C31.4935 25.2422 31.9039 24.6226 32.4188 24.0935C32.9475 23.5505 33.5667 23.1259 34.2763 22.8196C34.9998 22.4993 35.7721 22.3392 36.593 22.3392C37.5113 22.3392 38.381 22.4854 39.2018 22.7778C40.0228 23.0563 40.802 23.4461 41.5393 23.9473C42.277 24.4346 42.9656 25.0194 43.6056 25.7017C44.2595 26.3839 44.8719 27.1218 45.4424 27.9155C47.0008 26.1751 48.552 24.5391 50.0968 23.0075C51.6551 21.462 53.1509 20.1115 54.584 18.9559C56.0171 17.8002 57.3668 16.8883 58.6328 16.2199C59.9131 15.5377 61.0677 15.1966 62.0975 15.1966ZM46.0895 28.8762C46.7434 29.8787 47.3415 30.916 47.8842 31.988C48.4268 33.0601 48.9139 34.1113 49.3452 35.1417C49.7904 36.1718 50.1802 37.1535 50.5141 38.0865C50.862 39.0055 51.1609 39.82 51.4114 40.5299C53.0396 36.9795 54.7787 33.4987 56.6292 30.0875C58.4799 26.6763 60.5602 23.3069 62.8698 19.9792C63.2453 19.4223 63.5098 18.9628 63.663 18.6008C63.8298 18.2249 63.9132 17.9047 63.9132 17.6401C63.9132 17.1946 63.7256 16.8604 63.3498 16.6376C62.974 16.4009 62.5427 16.2826 62.0559 16.2826C60.5112 16.2826 58.4034 17.3408 55.7319 19.4571C53.0743 21.5595 49.8602 24.6992 46.0895 28.8762ZM32.6483 29.2312C32.6483 29.9692 32.7875 30.6723 33.0658 31.3406C33.3441 31.995 33.7267 32.6285 34.2137 33.2411C34.7007 33.8399 35.2781 34.4107 35.946 34.9537C36.6139 35.4827 37.3374 35.9841 38.1166 36.4573C39.1602 35.1905 40.2247 33.9165 41.3099 32.6355C42.3951 31.3545 43.4943 30.0875 44.6074 28.8344C44.1206 28.1939 43.6127 27.6022 43.0838 27.0592C42.5691 26.5023 42.0264 26.0219 41.4559 25.6181C40.8854 25.2144 40.2941 24.9011 39.6821 24.6783C39.0697 24.4556 38.4365 24.3442 37.7826 24.3442C37.0453 24.3442 36.3634 24.4695 35.7373 24.7201C35.1111 24.9707 34.5685 25.3188 34.1093 25.7643C33.6502 26.1959 33.2884 26.7111 33.024 27.3098C32.7736 27.8946 32.6483 28.5351 32.6483 29.2312ZM50.493 41.1355C50.2983 40.5091 50.0341 39.7502 49.7002 38.8591C49.3799 37.968 48.9973 37.0142 48.552 35.9981C48.1207 34.9677 47.6268 33.9165 47.0702 32.8443C46.5276 31.7722 45.9292 30.7489 45.2753 29.7742C44.3153 30.8603 43.3203 32.002 42.2909 33.1994C41.2612 34.3968 40.1896 35.6707 39.0765 37.0213C40.0507 37.5643 41.0665 38.0586 42.1238 38.5041C43.1954 38.9357 44.2319 39.3257 45.2337 39.6738C46.2495 40.008 47.2095 40.3003 48.1139 40.5509C49.0323 40.8013 49.8252 40.9965 50.493 41.1355ZM65.6247 43.5584C65.6247 43.976 65.4716 44.3381 65.1655 44.6443C64.8734 44.9366 64.5116 45.0827 64.0803 45.0827C63.6769 45.0827 63.3219 44.9366 63.0159 44.6443C62.7238 44.3381 62.5774 43.976 62.5774 43.5584C62.5774 43.1544 62.7238 42.8063 63.0159 42.514C63.3219 42.2078 63.6769 42.0545 64.0803 42.0545C64.5116 42.0545 64.8734 42.2078 65.1655 42.514C65.4716 42.8063 65.6247 43.1544 65.6247 43.5584ZM91.6927 28.7509C91.0527 29.8647 90.3154 30.9786 89.4804 32.0925C88.6596 33.2063 87.7341 34.2159 86.7047 35.1206C85.6889 36.0117 84.5618 36.7427 83.3234 37.3136C82.0851 37.8705 80.7354 38.1492 79.2743 38.1492C78.0778 38.1492 76.9578 37.968 75.9142 37.6062C74.8705 37.2302 73.9592 36.6801 73.18 35.9562C72.4148 35.232 71.8096 34.3481 71.3643 33.3038C70.933 32.2456 70.7172 31.0273 70.7172 29.6489C70.7172 27.9642 70.9746 26.4187 71.4896 25.0125C72.0182 23.5923 72.728 22.3183 73.6185 21.1906C74.509 20.0488 75.5455 19.0533 76.7281 18.204C77.911 17.3408 79.1701 16.6237 80.5059 16.0529C81.8417 15.4681 83.2121 15.0365 84.6173 14.758C86.0368 14.4656 87.4141 14.3264 88.7499 14.3403C90.1969 14.3542 91.6093 14.5631 92.9869 14.9668C94.3781 15.3706 95.6097 15.9902 96.681 16.8256C97.7662 17.6471 98.6359 18.6913 99.2898 19.9583C99.9438 21.2254 100.271 22.7221 100.271 24.4486C100.271 25.646 100.062 26.9896 99.6446 28.4794C99.2272 29.9552 98.5038 31.5912 97.4741 33.3873C96.2776 35.4759 95.2407 37.2581 94.3642 38.7337C93.4876 40.1957 92.7571 41.4281 92.173 42.4305C91.6024 43.4191 91.178 44.2127 90.8995 44.8112C90.6214 45.3961 90.4822 45.8624 90.4822 46.2105C90.4822 46.5447 90.6282 46.8094 90.9206 47.0042C91.2266 47.1991 91.6511 47.2968 92.1937 47.2968C92.9311 47.2968 93.8008 47.1016 94.8026 46.7119C95.8044 46.3219 96.9104 45.7374 98.1212 44.9577C99.2204 44.2614 100.306 43.4609 101.377 42.5559C102.448 41.6508 103.492 40.69 104.508 39.6738C105.537 38.6434 106.525 37.5783 107.471 36.4784C108.431 35.3785 109.336 34.2854 110.185 33.1994C111.033 32.0994 111.819 31.0273 112.543 29.9831C113.267 28.9388 113.914 27.9572 114.484 27.0383C114.206 26.1751 114.004 25.3536 113.879 24.5739C113.754 23.7803 113.691 23.0354 113.691 22.3392C113.691 21.4899 113.768 20.738 113.92 20.0836C114.074 19.4153 114.275 18.8584 114.526 18.4128C114.79 17.9534 115.096 17.6053 115.444 17.3686C115.806 17.1319 116.189 17.0136 116.592 17.0136C116.94 17.0136 117.239 17.0971 117.49 17.2642C117.754 17.4173 117.97 17.6192 118.136 17.8698C118.304 18.1205 118.429 18.4059 118.512 18.7261C118.596 19.0464 118.637 19.3666 118.637 19.6868C118.637 20.1741 118.554 20.7659 118.387 21.462C118.22 22.1582 117.914 22.9797 117.469 23.9265C117.093 24.734 116.564 25.7086 115.882 26.8504C115.201 27.9921 114.394 29.2312 113.461 30.5679C112.543 31.8906 111.52 33.262 110.393 34.6822C109.28 36.1023 108.09 37.4948 106.824 38.8591C105.558 40.2097 104.236 41.4907 102.859 42.702C101.495 43.9133 100.111 44.9713 98.7054 45.8764C97.2168 46.8373 95.9436 47.4985 94.886 47.8605C93.8287 48.2226 92.9382 48.4035 92.2145 48.4035C91.5606 48.4035 91.0108 48.3061 90.5656 48.1112C90.1343 47.9164 89.7864 47.6517 89.5222 47.3176C89.2577 46.9974 89.0699 46.6353 88.9585 46.2316C88.8472 45.8277 88.7917 45.4169 88.7917 44.9993C88.7917 44.4982 88.8683 43.9689 89.0212 43.4119C89.1743 42.855 89.4109 42.312 89.7309 41.783C90.1067 41.1566 90.5796 40.3908 91.1501 39.4858C91.7206 38.5807 92.3258 37.5922 92.9658 36.52C93.6197 35.448 94.2739 34.3202 94.9279 33.1367C95.5818 31.9393 96.1663 30.7489 96.681 29.5654C97.2096 28.368 97.6341 27.1984 97.9541 26.0567C98.288 24.915 98.4551 23.8568 98.4551 22.8822C98.4551 21.9354 98.2393 21.0165 97.808 20.1254C97.3907 19.2343 96.7644 18.4407 95.9297 17.7445C95.1086 17.0484 94.0929 16.4915 92.8824 16.0737C91.6719 15.6421 90.2735 15.4263 88.6872 15.4263C87.2681 15.4263 85.8976 15.6004 84.5758 15.9484C83.2679 16.2826 82.0364 16.756 80.8814 17.3686C79.7267 17.9812 78.6691 18.7192 77.7091 19.5824C76.7628 20.4317 75.9489 21.3715 75.2671 22.4019C74.5855 23.4183 74.0566 24.5113 73.6811 25.6808C73.3053 26.8364 73.1174 28.0269 73.1174 29.2521C73.1174 30.4217 73.2985 31.459 73.66 32.364C74.0358 33.2551 74.5366 34 75.1629 34.5988C75.7889 35.1973 76.5126 35.65 77.3333 35.9562C78.1544 36.2624 79.017 36.4157 79.9214 36.4157C80.8953 36.4157 81.8764 36.2277 82.8642 35.8516C83.8521 35.4759 84.8124 34.9329 85.7444 34.2227C86.6907 33.5126 87.5952 32.6563 88.4578 31.6539C89.3204 30.6375 90.1203 29.5027 90.858 28.2496L91.6927 28.7509ZM115.235 25.7643C115.709 24.9707 116.091 24.2606 116.383 23.6341C116.689 23.0075 116.926 22.4506 117.093 21.9633C117.26 21.476 117.371 21.0513 117.427 20.6893C117.496 20.3134 117.531 19.9862 117.531 19.7077C117.531 19.5406 117.517 19.3666 117.49 19.1856C117.462 18.9907 117.406 18.8166 117.322 18.6635C117.253 18.4964 117.149 18.3641 117.009 18.2667C116.884 18.1692 116.71 18.1205 116.488 18.1205C116.237 18.1205 116.008 18.2388 115.799 18.4755C115.59 18.6983 115.409 19.0046 115.256 19.3944C115.103 19.7704 114.985 20.2159 114.902 20.7311C114.818 21.2323 114.776 21.7753 114.776 22.3601C114.776 22.8613 114.811 23.3974 114.881 23.9682C114.95 24.5391 115.068 25.1378 115.235 25.7643ZM114.171 43.5584C114.171 43.976 114.018 44.3381 113.712 44.6443C113.42 44.9366 113.058 45.0827 112.627 45.0827C112.223 45.0827 111.868 44.9366 111.562 44.6443C111.27 44.3381 111.124 43.976 111.124 43.5584C111.124 43.1544 111.27 42.8063 111.562 42.514C111.868 42.2078 112.223 42.0545 112.627 42.0545C113.058 42.0545 113.42 42.2078 113.712 42.514C114.018 42.8063 114.171 43.1544 114.171 43.5584Z" fill="white"/>
<path d="M214.765 53.3891H209.028C209.028 53.3891 211.769 47.5777 212.087 45.7394C212.406 43.901 213.043 40.1178 213.043 39.6909C213.043 39.1572 213.617 34.5318 213.617 34.5318C213.617 34.5318 213.533 31.4747 212.47 29.9065C211.362 28.2726 208.263 26.8823 208.263 26.8823C207.651 26.1707 204.438 25.7556 203.099 25.8149C201.76 25.8742 199.848 25.637 199.848 25.637L204.055 25.2812L201.378 23.858C201.378 23.858 199.497 23.2273 198.892 22.6127L199.083 21.9011L199.848 22.9685C199.848 22.9685 201.486 23.5867 202.334 23.1464C202.935 22.8342 203.482 21.9011 203.482 21.9011C203.482 21.9011 203.961 21.0651 204.055 20.478C204.121 20.0656 203.807 19.7574 204.055 19.4106C204.428 18.8903 205.128 19.2461 205.776 19.4106C206.26 19.5332 206.924 19.9443 206.924 19.9443L205.776 20.478L206.35 21.1895C206.35 21.1895 206.836 21.5636 206.924 21.9011C207.058 22.4152 206.35 23.1464 206.35 23.1464C206.35 23.1464 204.913 23.7101 205.011 24.3917C205.075 24.8325 205.776 25.2812 205.776 25.2812L207.306 25.637L209.984 26.1707C211.029 26.3791 211.108 25.8447 211.322 25.2812C211.447 24.9537 211.322 24.3917 211.322 24.3917C211.322 23.2801 211.317 22.4639 211.514 21.3674C211.705 20.3001 211.687 19.9784 212.087 19.2327L212.852 17.8095C212.852 17.8095 213.567 16.4152 214.382 16.2084C214.814 16.0987 214.765 16.2084 214.765 16.2084C214.765 16.2084 213.808 16.92 213.617 17.6316C213.426 18.3432 212.828 20.4963 212.852 21.9011C212.875 23.1687 212.509 25.0202 214 26.7044C214.607 27.3912 215.262 28.0208 215.721 28.3055C216.18 28.5901 217.378 28.7205 218.398 29.1949C219.418 29.6693 221.7 28.0569 222.605 27.416C223.321 26.9093 223.47 26.5258 223.944 25.8149C224.529 24.9372 224.518 23.1464 224.518 23.1464L224.709 22.6127C224.699 22.8326 224.709 23.5022 224.709 24.7475C224.709 25.9928 222.223 28.8391 222.223 28.8391C222.223 28.8391 220.334 30.0866 218.972 31.3297C218.289 31.9527 217.442 33.1087 217.442 33.1087C217.442 33.1087 216.233 35.2195 215.721 36.6666C214.78 39.3268 214.38 40.6486 214 43.4267C213.705 45.5807 213.897 47.128 214 49.2975C214.076 50.9178 214.765 53.3891 214.765 53.3891Z" fill="#FF7481"/>
<path d="M213.151 39.2986C223.561 39.2986 232 31.4477 232 21.7631C232 12.0785 223.561 4.22754 213.151 4.22754C202.741 4.22754 194.302 12.0785 194.302 21.7631C194.302 31.4477 202.741 39.2986 213.151 39.2986Z" fill="url(#paint0_radial)" fill-opacity="0.5"/>
<path d="M219.53 57.9136L7.29385 56.8713" stroke="white" stroke-opacity="0.8" stroke-width="3"/>
<path d="M132.888 47.2046C131.797 47.2046 130.876 47 130.125 46.5907C129.375 46.1587 128.818 45.6131 128.454 44.9537C128.091 44.2716 127.909 43.5667 127.909 42.8392C127.909 42.0888 128.091 41.4408 128.454 40.8952C128.795 40.3267 129.216 39.9175 129.716 39.6674C130.603 38.0758 131.376 36.4728 132.035 34.8585C132.695 33.2215 133.32 31.4594 133.911 29.5722L138.959 28.8901C139.072 31.8004 139.266 34.9495 139.539 38.3373C139.652 39.7015 139.709 40.6905 139.709 41.3044C139.709 41.8274 139.664 42.2594 139.573 42.6004C140.641 41.9865 141.46 41.4181 142.028 40.8952H143.461C142.005 42.5777 140.266 43.9987 138.243 45.1583C137.583 45.8632 136.765 46.3861 135.787 46.7272C134.832 47.0455 133.866 47.2046 132.888 47.2046ZM131.797 44.5103C132.638 44.5103 133.343 44.2602 133.911 43.76C134.48 43.2598 134.764 42.4526 134.764 41.3385C134.764 40.6564 134.696 39.7015 134.559 38.4737C134.332 35.8817 134.184 34.1423 134.116 33.2556C133.57 35.0518 132.649 37.2004 131.353 39.7015C131.876 39.9743 132.138 40.3722 132.138 40.8952C132.138 41.3272 131.99 41.7137 131.694 42.0547C131.421 42.3958 131.069 42.5663 130.637 42.5663C130.16 42.5663 129.853 42.4185 129.716 42.1229C129.716 42.9415 129.875 43.544 130.194 43.9305C130.535 44.3171 131.069 44.5103 131.797 44.5103ZM145.399 47.2046C144.308 47.2046 143.421 46.8636 142.739 46.1815C142.079 45.4994 141.75 44.4762 141.75 43.112C141.75 42.5436 141.841 41.8046 142.023 40.8952L144.069 31.3116H142.943L143.216 29.9474H144.342L145.365 25.2408L150.413 24.5587L149.253 29.9474H151.299L151.026 31.3116H148.98L146.797 41.5432C146.706 41.8842 146.661 42.248 146.661 42.6345C146.661 43.0893 146.763 43.4189 146.968 43.6236C147.195 43.8055 147.559 43.8964 148.059 43.8964C148.719 43.8964 149.333 43.6236 149.901 43.0779C150.469 42.5095 150.879 41.7819 151.129 40.8952H152.561C151.72 43.3507 150.64 45.0219 149.321 45.9086C148.002 46.7726 146.695 47.2046 145.399 47.2046ZM156.436 55.5263C155.344 55.5263 154.435 55.2421 153.707 54.6737C152.98 54.1053 152.616 53.2867 152.616 52.2181C152.616 50.9221 153.139 49.8762 154.185 49.0804C155.23 48.3074 156.561 47.6594 158.175 47.1364L158.584 45.2947C157.925 46.0223 157.254 46.5225 156.572 46.7954C155.89 47.0682 155.196 47.2046 154.492 47.2046C153.4 47.2046 152.513 46.8636 151.831 46.1815C151.172 45.4994 150.842 44.4762 150.842 43.112C150.842 42.5436 150.933 41.8046 151.115 40.8952L153.434 29.9474H158.345L155.89 41.5432C155.822 41.816 155.788 42.1002 155.788 42.3958C155.788 43.3962 156.129 43.8964 156.811 43.8964C157.402 43.8964 157.925 43.6463 158.38 43.1461C158.834 42.6232 159.198 41.9411 159.471 41.0998L161.858 29.9474H166.769L163.393 45.7722C164.484 45.4084 165.36 44.8627 166.019 44.1352C166.679 43.4076 167.236 42.3276 167.69 40.8952H169.123C168.509 42.9187 167.679 44.408 166.633 45.3629C165.587 46.2952 164.405 46.9318 163.086 47.2728L162.575 49.7284C162.12 51.9339 161.335 53.4459 160.221 54.2644C159.107 55.1057 157.845 55.5263 156.436 55.5263ZM155.651 52.8661C156.038 52.8661 156.413 52.6046 156.777 52.0817C157.14 51.5587 157.425 50.8084 157.629 49.8307L157.834 48.8417C155.606 49.6602 154.492 50.6265 154.492 51.7406C154.492 52.0362 154.594 52.2977 154.798 52.5251C155.003 52.7524 155.287 52.8661 155.651 52.8661ZM171.078 47.2046C169.987 47.2046 169.1 46.8636 168.418 46.1815C167.758 45.4994 167.429 44.4762 167.429 43.112C167.429 42.5436 167.52 41.8046 167.701 40.8952L171.351 23.8084L176.398 23.1263L172.476 41.5432C172.385 41.8842 172.34 42.248 172.34 42.6345C172.34 43.0893 172.442 43.4189 172.647 43.6236C172.874 43.8055 173.238 43.8964 173.738 43.8964C174.397 43.8964 175.011 43.6236 175.58 43.0779C176.148 42.5095 176.557 41.7819 176.808 40.8952H178.24C177.399 43.3507 176.319 45.0219 175 45.9086C173.681 46.7726 172.374 47.2046 171.078 47.2046ZM181.603 47.2046C179.943 47.2046 178.647 46.7726 177.715 45.9086C176.783 45.0219 176.317 43.6463 176.317 41.7819C176.317 40.2131 176.623 38.4851 177.237 36.5979C177.851 34.7107 178.852 33.0851 180.239 31.7208C181.626 30.3339 183.388 29.6404 185.525 29.6404C188.026 29.6404 189.277 30.7318 189.277 32.9145C189.277 34.1878 188.913 35.3587 188.185 36.4274C187.458 37.496 186.491 38.36 185.286 39.0194C184.081 39.656 182.797 40.0198 181.432 40.1107C181.387 40.6109 181.364 40.952 181.364 41.1339C181.364 43.0211 182.069 43.9646 183.479 43.9646C184.115 43.9646 184.797 43.7941 185.525 43.4531C186.253 43.112 186.912 42.68 187.503 42.1571C186.889 45.5221 184.922 47.2046 181.603 47.2046ZM181.671 38.4737C182.535 38.4509 183.342 38.1667 184.093 37.6211C184.866 37.0754 185.479 36.3819 185.934 35.5406C186.412 34.6766 186.65 33.7785 186.65 32.8463C186.65 31.9141 186.366 31.448 185.798 31.448C185.002 31.448 184.206 32.1756 183.41 33.6307C182.637 35.0632 182.058 36.6775 181.671 38.4737Z" fill="white"/>
<defs>
<filter id="filter0_b" x="-10.22" y="-10.22" width="258.44" height="86.44" filterUnits="userSpaceOnUse" color-interpolation-filters="sRGB">
<feFlood flood-opacity="0" result="BackgroundImageFix"/>
<feGaussianBlur in="BackgroundImage" stdDeviation="5.11"/>
<feComposite in2="SourceAlpha" operator="in" result="effect1_backgroundBlur"/>
<feBlend mode="normal" in="SourceGraphic" in2="effect1_backgroundBlur" result="shape"/>
</filter>
<radialGradient id="paint0_radial" cx="0" cy="0" r="1" gradientUnits="userSpaceOnUse" gradientTransform="translate(213.151 21.7631) rotate(90) scale(17.5355 18.8489)">
<stop offset="0.296875" stop-color="white"/>
<stop offset="1" stop-color="#FF7481"/>
</radialGradient>
</defs>
</svg>
